<svg width="25" height="20" viewBox="0 0 25 20" fill="none" xmlns="http://www.w3.org/2000/svg">
<path d="M20.9477 16.1265L1.96887 6.46741L1.21094 7.95224L4.42206 9.5857C4.26769 13.3693 6.28142 17.0765 9.88055 18.9086C14.036 21.0241 18.9771 19.9615 21.9282 16.6237L20.9491 16.1251L20.9477 16.1265ZM10.6385 17.4252C7.89324 16.0279 6.255 13.3124 6.09924 10.4399L18.9646 16.9877C16.5462 18.5489 13.3837 18.8225 10.6385 17.4252Z" fill="#012B7A"/>
<path d="M23.6905 13.7811L23.0063 13.4325L0.75793 2.10938L0 3.59421L5.15949 6.21941L6.65032 6.9778L21.4418 14.5048L22.9326 15.2632C23.0786 15.0284 23.2177 14.7867 23.3456 14.5367C23.4736 14.2867 23.5862 14.0325 23.6905 13.7783V13.7811Z" fill="#012B7A"/>
<path d="M6.91816 3.37675L8.466 4.16431L22.647 11.3815L24.1948 12.1691C25.1655 7.82292 23.1212 3.2059 18.9644 1.09046C15.3666 -0.740233 11.1806 -0.187413 8.20594 2.16138L4.99621 0.527918L4.23828 2.01275L6.91955 3.37675H6.91816ZM18.2092 2.57668C20.9545 3.97401 22.5927 6.6895 22.7485 9.56194L9.88173 3.01422C12.3002 1.45299 15.4626 1.17936 18.2078 2.57668H18.2092Z" fill="#012B7A"/>
</svg>
