<svg width="162" height="65" viewBox="0 0 162 65" fill="none" xmlns="http://www.w3.org/2000/svg">
<path d="M109.5 5H53.5V61H109.5V5Z" fill="#FF0032"/>
<path d="M90.8057 9.30664V11.8839H96.4412V22.2271H99.5912V11.8839H105.215V9.30664H90.8057Z" fill="white"/>
<path d="M70.5439 9.30679L66.4202 17.8518L62.3082 9.30679H57.8066V22.2273H60.968V12.9836L64.9885 20.7954H67.8635L71.8839 12.9836V22.2273H75.0339V9.30679H70.5439Z" fill="white"/>
<path d="M102.066 52.3863C101.986 52.9017 101.78 53.3255 101.448 53.6463C101.139 53.9441 100.715 54.1617 100.188 54.2877C99.6725 54.4023 98.9051 54.471 98.1033 54.471C97.2671 54.471 96.534 54.3679 95.904 54.1503C95.297 53.9441 94.8159 53.5775 94.4837 53.0735C94.14 52.5695 93.9682 51.8366 93.9682 50.8858V49.5686C93.9682 48.6293 94.14 47.8962 94.4837 47.3807C94.8273 46.8767 95.297 46.5103 95.904 46.3041C96.5226 46.0865 97.2671 45.9834 98.1033 45.9834C98.9051 45.9834 99.6725 46.0521 100.188 46.1667C100.715 46.2927 101.139 46.4987 101.448 46.808C101.78 47.1287 101.986 47.5526 102.066 48.068H105.216C105.125 47.0027 104.77 46.098 104.14 45.3649C103.567 44.7005 102.765 44.2194 101.769 43.9216C100.806 43.6352 99.535 43.4863 98.1033 43.4863C96.5913 43.4863 95.2855 43.704 94.2088 44.1278C93.1207 44.5631 92.2731 45.2847 91.6889 46.2812C91.1276 47.2318 90.8413 48.5147 90.8184 50.0726V50.2215L90.9902 50.2329L90.8184 50.2444V50.2558V50.3933C90.8413 51.9511 91.1276 53.2339 91.6889 54.1846C92.2731 55.1812 93.1207 55.9028 94.2088 56.3381C95.2855 56.7619 96.5913 56.9795 98.1033 56.9795C99.535 56.9795 100.806 56.8306 101.769 56.5443C102.765 56.2464 103.556 55.7653 104.14 55.101C104.77 54.3793 105.136 53.463 105.216 52.3977H102.066V52.3863Z" fill="white"/>
</svg>
