<svg width="160" height="65" viewBox="0 0 160 65" fill="none" xmlns="http://www.w3.org/2000/svg">
<path d="M42.7949 52.5554H40.3867V45.5269H44.5349V46.2245H41.2221V48.4956H42.7852C44.2008 48.4956 45.105 49.0849 45.105 50.4912V50.5303C45.105 51.857 44.2008 52.5554 42.7949 52.5554ZM42.7754 51.8865C43.7975 51.8865 44.2693 51.3855 44.2693 50.5303V50.4912C44.2693 49.6257 43.7879 49.1638 42.6965 49.1638H41.2221V51.8865H42.7754Z" fill="#1F232B"/>
<path d="M45.8799 51.1302C45.8799 49.9406 47.1381 49.5376 48.4553 49.5376H49.1927V49.1641C49.1927 48.3486 48.8781 48.0046 48.0917 48.0046C47.3838 48.0046 46.9908 48.2993 46.912 48.9284H46.0961C46.2044 47.7586 47.1381 47.3262 48.1311 47.3262C49.1138 47.3262 50.0085 47.7291 50.0085 49.1641V52.5557H49.1927V51.9067C48.8092 52.3885 48.3473 52.6441 47.5904 52.6441C46.6368 52.6441 45.8799 52.1822 45.8799 51.1302ZM49.1927 50.7568V50.1174H48.4847C47.4527 50.1174 46.6957 50.3731 46.6957 51.1303C46.6957 51.6608 46.9514 51.9952 47.6689 51.9952C48.5341 51.9951 49.1927 51.5531 49.1927 50.7568Z" fill="#1F232B"/>
<path d="M54.7267 50.2649H52.2006V52.5553H51.3848V47.4141H52.2006V49.5769H54.7267V47.4141H55.5429V52.5553H54.7267V50.2649Z" fill="#1F232B"/>
<path d="M57.767 49.9306V52.5553H56.9512V47.4141H57.767V49.8127L59.9001 47.4141H60.8537L58.6518 49.8325L61.0404 52.5553H60.0475L57.767 49.9306Z" fill="#1F232B"/>
<path d="M16.9379 13C8.41196 13 1.5 19.912 1.5 28.4367C1.5 36.9618 8.41196 43.8772 16.9379 43.8772C25.4627 43.8772 32.3782 36.9618 32.3782 28.4367C32.3782 19.912 25.4627 13 16.9379 13ZM14.7477 35.0046L13.6097 38.3791C9.3327 36.9368 6.4595 32.914 6.4595 28.3689C6.4595 23.8185 9.33824 19.7944 13.6225 18.3559L14.7564 21.7324C11.9239 22.6832 10.0211 25.3502 10.0211 28.3689C10.0211 31.3843 11.9207 34.051 14.7477 35.0046ZM20.058 38.4472L18.9916 35.0492C21.9018 34.1359 23.8571 31.4512 23.8571 28.3689C23.8571 25.3252 21.9331 22.6513 19.0688 21.7154L20.1756 18.3298C24.5079 19.7457 27.4187 23.7803 27.4187 28.3689C27.4187 33.0156 24.4606 37.0658 20.058 38.4472Z" fill="#02BAE8"/>
<path d="M156.101 30.9291L157.789 32.9504C156.064 34.7678 153.876 35.2685 152.133 35.2685C150.482 35.2685 149.239 35.0088 148.22 34.4896C145.976 33.3769 144.844 31.1145 144.844 28.3699C144.844 24.1973 147.663 21.156 151.817 21.156C156.416 21.156 158.661 24.6053 158.364 29.0931L147.83 29.1117C147.886 30.2429 148.535 31.3185 149.444 31.8563C150.204 32.3199 151.094 32.561 152.318 32.561C153.597 32.561 154.933 32.1159 156.101 30.9291ZM147.868 26.6823H155.303C155.118 25.0504 153.783 23.6781 151.632 23.6781C149.444 23.6781 148.127 25.1987 147.868 26.6823ZM77.1749 34.9161H80.9763L75.0051 27.999L80.8837 21.4898H77.1377L72.65 26.7008H71.3334V21.4898H68.4219V34.9161H71.3334V29.5753H72.6689L77.1749 34.9161ZM89.544 23.9006C87.1153 23.9006 85.5012 25.7921 85.5012 28.203C85.5012 30.6138 87.1153 32.5053 89.544 32.5053C92.0289 32.5053 93.5686 30.6509 93.5686 28.203C93.5686 25.8107 92.0661 23.9006 89.544 23.9006ZM90.0451 21.156C93.8282 21.156 96.61 24.1232 96.61 28.203C96.61 32.2272 93.8465 35.2685 90.0451 35.2685C88.1903 35.2685 86.744 34.638 85.7054 33.5067V40.4981H82.7756V21.4898H85.6311V23.1032C86.744 21.768 88.1903 21.156 90.0451 21.156ZM128.265 21.4898H116.249V24.1788H120.792V34.9161H123.722V24.1788H128.265V21.4898ZM66.4005 21.4898H54.3835V24.1788H58.927V34.9161H61.857V24.1788H66.4005V21.4898ZM50.823 28.203C50.823 25.6994 49.0427 23.845 46.6319 23.845C44.2396 23.845 42.4408 25.6438 42.4408 28.203C42.4408 30.7251 44.184 32.5795 46.6319 32.5795C49.0242 32.5795 50.823 30.7436 50.823 28.203ZM39.4365 28.203C39.4365 24.1788 42.552 21.156 46.6319 21.156C50.7117 21.156 53.8272 24.1788 53.8272 28.203C53.8272 32.2272 50.7117 35.2685 46.6319 35.2685C42.552 35.2685 39.4365 32.2272 39.4365 28.203ZM142.471 21.4898V34.9161H139.597V26.2558L132.568 34.9161H130.268V21.4898H133.143V30.1317L140.19 21.4898H142.471ZM114.246 34.9161H111.334V21.4898H114.246V34.9161ZM106.791 30.3356C106.791 29.1302 105.956 28.2957 104.806 28.2957H101.858V32.4312H104.806C105.956 32.4312 106.791 31.541 106.791 30.3356ZM109.684 30.3356C109.684 33.0246 107.736 34.9161 104.899 34.9161H98.9833V21.4898H101.877V25.8293H105.159C107.941 25.8293 109.684 27.6281 109.684 30.3356Z" fill="#1F232B"/>
</svg>
