<svg width="160" height="65" viewBox="0 0 160 65" fill="none" xmlns="http://www.w3.org/2000/svg">
<path d="M25.5 7H77.5V59H25.5V7Z" fill="#011689"/>
<path d="M59.7799 44.8052C59.277 44.9338 59.1541 45.1358 59.2417 45.2597C59.3311 45.3779 59.7799 45.2876 60.0146 45.1787C60.253 45.0669 60.3107 44.9338 60.2297 44.8108C60.1645 44.713 59.8572 44.7866 59.7799 44.8052ZM55.7914 21.3475C56.0438 21.368 56.0243 21.3615 56.1258 21.3792C56.1844 21.2954 56.6286 20.6481 56.6677 20.5131C56.7134 20.3827 56.6072 20.2822 56.5057 20.2766C56.4061 20.271 56.2068 20.2822 56.0717 20.406C55.9274 20.5364 55.838 21.1221 55.7914 21.3475ZM63.4182 29.2611C62.8763 29.0628 62.3194 29.1726 61.783 29.3859L61.7318 29.4995C61.6293 29.7211 61.4869 29.8906 61.3313 30.0247C61.6107 30.2259 62.2533 30.4233 62.947 30.4009C63.6445 30.3851 64.2489 29.8888 64.2489 29.8888C64.1092 29.6895 63.9658 29.4604 63.4182 29.2611ZM62.4432 32.3062C62.2318 31.9338 61.62 31.8648 61.1041 31.4542L61.0706 31.5622L60.9542 31.5901C60.612 31.6754 60.2543 31.6774 59.9112 31.5957C59.9466 31.6795 59.9745 31.8043 59.9876 31.8704C60.3442 32.3081 60.849 32.6154 61.5185 32.6936C62.1853 32.7681 62.4432 32.3062 62.4432 32.3062ZM61.1702 28.951C61.5101 29.0628 61.8193 29.1186 62.6602 28.9045C63.5542 28.6716 63.6818 27.9974 63.6818 27.9974C63.2897 27.7451 62.785 27.7479 62.5289 27.8456C62.2719 27.9388 61.6889 27.9388 61.4412 27.8829C61.3559 28.2628 61.1513 28.6054 60.8573 28.8607C60.9747 28.884 61.0771 28.9166 61.1702 28.951ZM61.8892 39.6695C62.4209 39.1899 62.7571 38.6982 62.4442 38.3667C62.1331 38.0343 61.6061 38.3229 61.0715 38.8016C60.5389 39.2802 60.2036 39.771 60.5137 40.1016C60.8024 40.4108 61.3565 40.1481 61.8892 39.6695ZM60.5435 38.3322C61.214 37.1701 60.4057 35.613 59.7296 34.5291C59.6437 34.4968 59.5597 34.4595 59.4782 34.4173C59.7147 35.2517 60.1654 36.2435 59.9801 37.008C59.3907 36.3217 59.2165 34.2646 59.2165 34.2646C59.0971 34.1877 58.9835 34.1021 58.8766 34.0085C58.8766 34.0812 58.8729 34.1603 58.8673 34.2376C58.9493 35.4771 59.0526 36.751 59.4456 37.3861C59.833 38.01 60.5435 38.3322 60.5435 38.3322ZM59.1029 33.934C59.4866 34.233 60.0034 34.5179 60.5733 34.4332C60.5733 34.4332 60.7046 34.0141 59.5695 32.986C59.2487 32.9477 58.9424 32.8303 58.6783 32.6443C58.6317 32.7756 58.5544 32.9516 58.6112 33.203C58.6671 33.4563 58.844 33.7329 59.1029 33.934ZM63.2162 27.1454C63.7041 26.7114 64.1232 25.6405 64.1232 25.6405C63.6743 25.6964 62.8008 26.08 62.2719 26.3696C61.7858 26.6378 61.1051 27.1984 60.8164 27.4061C61.1572 27.4322 61.3565 27.5523 61.3742 27.5625L61.4897 27.6361C62.3576 27.7609 62.7114 27.5933 63.2162 27.1463V27.1454ZM61.214 33.9573L61.1879 33.9545C60.9907 33.9597 60.7941 33.9291 60.6078 33.8642C60.659 33.9517 60.6981 34.0318 60.7242 34.1007C62.5848 35.7993 62.4246 36.6374 62.4246 36.6374C61.7904 36.2761 61.0874 35.2406 60.7326 34.6101L60.6041 34.6287C60.4515 34.6529 60.2963 34.6551 60.1431 34.6353C60.3852 34.8588 60.7391 35.4901 61.3174 36.4903C61.891 37.4932 63.2907 37.9206 63.2907 37.9206C63.4341 36.2221 61.9264 34.6548 61.214 33.9573ZM60.9812 32.7514C60.5249 32.4534 60.3107 32.3956 59.9997 32.2858C59.9541 32.6582 59.7715 32.8929 59.7566 32.9125C59.8907 33.0671 60.3712 33.8716 61.3779 33.7385C61.3779 33.7385 61.6461 33.1891 60.9812 32.7514ZM58.4352 27.164C58.0786 27.4024 57.6856 27.8969 57.9845 28.5925C58.2825 29.2891 58.8468 30.2762 58.5088 30.6617C58.1726 31.0472 56.9741 31.2474 55.9982 30.8647C55.9982 30.8647 55.7942 31.4663 55.4394 31.8518C55.4394 31.8518 55.6052 32.1843 56.1686 32.0176C56.1686 32.0176 55.9628 32.5111 56.2431 33.0438C56.2431 33.0438 56.8987 32.932 57.178 32.3472C57.178 32.3472 57.4407 32.8026 57.9668 32.9693C57.9668 32.9693 58.3989 32.7514 58.3039 31.9049C58.3039 31.9049 58.6205 32.6592 59.5965 32.7849C59.5965 32.7849 60.158 32.0911 59.427 31.1552C59.427 31.1552 59.9513 31.6143 60.9067 31.3936C60.9067 31.3936 61.0557 30.9187 60.1924 30.2594C60.1924 30.2594 61.1702 30.2221 61.5455 29.4166C61.5455 29.4166 61.1311 28.9203 60.1217 29.032C60.1217 29.032 61.0566 28.83 61.2624 27.732C61.2624 27.732 60.5882 27.3102 59.522 27.9872C59.522 27.9872 59.7082 27.6408 60.1571 27.2934C60.6068 26.9433 61.1516 25.9739 60.9616 24.5463C60.6068 25.3136 60.023 26.1014 58.4352 27.164ZM58.4231 19.6815C58.6373 19.7374 58.6839 19.7225 58.7863 19.7123C58.7978 19.6423 58.793 19.5706 58.7723 19.5027C58.7723 19.5027 58.2648 19.0185 57.8374 18.9356C57.7468 18.9155 57.6529 18.9165 57.5628 18.9384C57.4727 18.9604 57.3889 19.0028 57.3177 19.0623C57.3177 19.0623 57.4695 19.0483 57.6977 19.2299C57.9258 19.4096 58.208 19.6284 58.4231 19.6815ZM57.5058 21.1156C57.4965 21.2488 57.4006 21.3885 57.2889 21.5021C57.2889 21.5021 57.9119 21.3587 57.9864 20.9815C58.0553 20.6463 57.91 20.4107 57.8076 20.2244C57.7144 20.0475 57.4267 19.6406 57.355 19.4701C57.2898 19.3156 57.2535 19.1861 57.2768 19.1004C57.0868 19.2876 56.9257 19.485 56.9294 19.6592C56.9313 19.8352 57.1436 20.2822 57.2535 20.4517C57.3652 20.6221 57.5263 20.8446 57.5058 21.1156ZM58.7174 20.4954C58.5498 20.8176 58.4706 21.3503 58.6112 21.7181C58.723 22.0161 58.8124 22.4398 58.8198 22.573C59.0526 22.2331 59.1271 21.8699 59.0787 21.5291C59.0498 21.3289 59.0247 20.9992 59.1523 20.7469C59.2575 20.5364 59.4801 20.1602 59.4493 19.7868C59.264 19.6731 58.9409 19.567 58.9409 19.567C58.9716 19.8911 58.8803 20.1835 58.7174 20.4954ZM56.4042 22.762C56.4042 22.762 56.8139 22.4603 56.9126 22.2052C57.0132 21.9528 57.0393 21.7759 56.6286 21.8988C56.6081 22.1979 56.5314 22.4906 56.4042 22.762ZM62.9293 25.1693C63.4136 24.3386 63.1575 23.2854 63.1575 23.2854C62.1955 23.5368 61.7038 24.3442 61.5651 24.5752C61.4282 24.8052 61.1982 25.6964 61.0957 26.0558C60.971 26.4963 60.8043 26.8716 60.5892 27.1416C61.6563 26.6444 62.5103 25.8891 62.9293 25.1693ZM59.2826 21.5021C59.2901 21.5729 59.2957 21.6436 59.2985 21.7181C59.4866 21.3997 60.0341 21.7274 60.0341 21.7274C59.6896 21.1883 59.522 21.1296 59.2724 21.0355C59.2528 21.1659 59.2575 21.3186 59.2817 21.5012L59.2826 21.5021ZM64.4361 25.3946L64.152 26.202C64.9044 25.6158 65.666 25.0415 66.4364 24.4792C66.8796 24.1524 67.5436 23.6858 68.2057 23.4679C68.2057 23.4679 67.5967 24.2418 67.105 24.6217C66.5397 25.0603 65.9633 25.4403 65.4865 25.6936C65.0665 25.9199 64.8514 26.0474 63.9975 26.4516C63.9388 26.5559 63.7619 26.8008 63.693 26.8967C66.0397 26.5149 68.621 24.7782 69.4182 23.7026C70.219 22.627 69.9909 21.0216 69.9909 21.0216C69.2152 21.1724 67.5343 22.5916 67.0994 23.0191C66.6636 23.4446 65.3487 24.6971 64.4361 25.3946ZM62.5392 26.0139C62.7217 25.9245 62.9312 25.8286 63.1426 25.742L63.3382 25.6628C65.0721 24.7633 66.7902 22.9008 67.4859 21.6064C68.1796 20.311 67.8937 18.8071 67.7094 18.0025C66.9215 18.6544 65.7892 19.9395 65.2947 20.6379C64.6875 21.4946 63.9099 22.708 63.4275 23.6961V23.7249C63.4313 23.8274 63.4341 23.9391 63.4294 24.0574L63.4089 24.3153C63.9779 23.6067 64.6596 22.7527 65.3077 21.9621C65.7528 21.422 66.1309 21.0951 66.5472 20.8316C66.1952 21.8327 65.5666 22.6326 65.1177 23.0312C64.6735 23.4279 64.0282 24.0993 63.3977 24.5109L63.3354 24.7139C63.2848 24.9087 63.2081 25.0957 63.1072 25.2699C62.9591 25.5231 62.7682 25.7727 62.5392 26.0148V26.0139ZM71.5572 25.39C69.719 25.3425 68.2327 25.7811 67.0864 26.1257C65.7463 26.5261 63.7023 27.2729 62.988 27.5849C63.2562 27.5933 63.5495 27.6706 63.7982 27.8317C64.7955 27.4592 65.2602 27.299 66.1672 27.0522C66.8815 26.8557 67.4104 26.8166 67.8584 26.7747C67.8584 26.7747 67.2288 27.1817 66.1914 27.5048C65.1624 27.8261 64.7201 27.881 63.8848 28.0365C63.8801 28.0663 63.7553 28.6484 63.0653 28.9696C64.5488 28.3364 67.4738 27.9704 69.0438 27.3307C71.1689 26.4665 71.5581 25.3909 71.5581 25.3909L71.5572 25.39ZM58.0879 35.3933C58.0879 35.3933 58.4622 34.9919 58.5702 34.6613C58.699 34.2845 58.7042 33.8764 58.5851 33.4964C58.5184 33.2954 58.4141 33.109 58.2778 32.9469C58.2195 33.0279 58.1458 33.0965 58.0609 33.149L57.9845 33.1863L57.9025 33.1602C57.8353 33.1398 57.7699 33.114 57.707 33.0829C57.6232 33.3092 57.5915 33.4181 57.5692 33.61C57.5412 33.8651 57.4909 34.2684 57.5869 34.5961C57.7079 34.9966 57.95 35.2415 58.0879 35.3933ZM63.6306 31.6404C63.3139 30.7231 62.6854 30.5816 62.0689 30.4689C61.6211 30.3753 61.1595 30.369 60.7093 30.4503C60.9067 30.6673 60.9747 30.8805 61.0706 31.0183C61.3732 31.4495 61.905 31.7037 62.5131 31.8285C63.232 31.9701 63.6306 31.6413 63.6306 31.6413V31.6404ZM52.358 24.2995C52.5722 24.0909 52.8348 23.7799 52.9344 23.4828C52.9344 23.4828 52.5079 23.4893 52.3086 23.6188C52.0507 23.7845 51.8039 24.1468 51.7108 24.5807C51.7108 24.5807 52.1438 24.5081 52.358 24.2995ZM50.6939 23.6188C50.4946 23.4893 50.0662 23.4828 50.0662 23.4828C50.1668 23.7808 50.4303 24.0909 50.6455 24.2995C50.8578 24.5081 51.2889 24.5807 51.2889 24.5807C51.1949 24.1468 50.9509 23.7845 50.6939 23.6188ZM45.5498 23.1215C45.5278 23.1215 45.5061 23.1172 45.4859 23.1087C45.4657 23.1003 45.4473 23.0879 45.4319 23.0723C45.4165 23.0567 45.4043 23.0382 45.3961 23.0179C45.3879 22.9976 45.3837 22.9758 45.384 22.9539C45.384 22.8608 45.4585 22.7863 45.5498 22.7863C45.6466 22.7863 45.7239 22.8608 45.7239 22.9539C45.7239 23.047 45.6466 23.1215 45.5498 23.1215ZM45.6541 22.221C45.424 22.167 44.9389 22.113 44.7247 22.4221C44.5086 22.7295 44.5915 23.3115 45.0217 23.5489C45.0217 23.5489 45.6773 22.9967 46.4726 23.5461C46.4726 23.5461 46.6561 23.4288 47.0714 23.3375C47.0714 23.3375 46.8274 23.047 46.5536 22.9259C46.3068 22.8161 45.7993 22.6717 45.6541 22.221ZM47.6981 30.0685C47.9495 30.0685 48.3295 29.8683 48.797 29.2909C49.4879 28.4407 49.6453 27.2934 49.6453 27.2934C48.9376 28.4519 48.2326 29.0544 47.6832 29.0227C47.1962 28.9976 46.9708 28.3103 46.9708 28.3103C46.725 28.504 46.6821 29.0553 46.8125 29.4064C46.9382 29.7603 47.3191 30.0685 47.6981 30.0685ZM47.6637 23.982C47.4513 23.8143 47.1617 23.4372 47.1617 23.4372C46.7827 23.5238 46.5154 23.5722 46.223 23.9615C45.953 24.3219 46.3236 24.8759 46.3236 24.8759C46.5937 23.9717 47.6637 23.982 47.6637 23.982ZM56.2477 36.1597C55.9628 37.563 56.4061 38.1395 56.4061 38.1395C57.1417 37.2772 57.2032 36.3795 57.3708 35.0478C57.2898 35.2238 57.1846 35.4082 57.043 35.5898C56.8493 36.9335 56.5811 37.1207 56.5811 37.1207C56.4768 36.5499 56.6463 35.98 56.6463 35.98C56.5233 36.0596 56.3889 36.1202 56.2477 36.1597ZM57.3783 32.8752C57.3075 32.8138 57.246 32.7542 57.192 32.7002C57.0859 32.8324 56.7245 33.2738 56.5467 33.7161C56.4107 34.0923 56.2673 34.6045 56.1965 34.8969C56.122 35.1884 55.9079 35.8002 55.7784 36.0088C55.7784 36.0088 56.3511 36.0796 56.7748 35.5954C57.1911 35.1204 57.3308 34.6446 57.3988 34.1547C57.4472 33.7729 57.4332 33.2403 57.3783 32.8752ZM57.2777 22.9539C57.2777 22.8608 57.3559 22.7863 57.4472 22.7863C57.5403 22.7863 57.6195 22.8608 57.6195 22.9539C57.6195 23.047 57.5412 23.1215 57.4472 23.1215C57.4025 23.1215 57.3597 23.1039 57.328 23.0725C57.2963 23.0411 57.2782 22.9985 57.2777 22.9539ZM57.977 23.5499C58.4091 23.3115 58.4939 22.7295 58.2769 22.4231C58.0627 22.113 57.5775 22.167 57.3457 22.221C57.2013 22.6717 56.6919 22.817 56.448 22.9259C56.1723 23.047 55.9265 23.3375 55.9265 23.3375C56.3418 23.4288 56.528 23.5461 56.528 23.5461C56.7367 23.3882 56.9913 23.303 57.253 23.3035C57.5147 23.304 57.769 23.3912 57.977 23.5499ZM56.677 24.8759C56.677 24.8759 57.0486 24.3219 56.7767 23.9605C56.4861 23.5722 56.2189 23.5229 55.838 23.4372C55.838 23.4372 55.5512 23.8143 55.3389 23.982C55.3389 23.982 56.4079 23.9717 56.677 24.8759ZM56.0317 28.3103C56.0317 28.3103 55.8045 28.9976 55.3184 29.0227C54.7708 29.0544 54.064 28.4519 53.3563 27.2934C53.3563 27.2934 53.5127 28.4407 54.2037 29.2909C54.6693 29.8683 55.0511 30.0685 55.3016 30.0685C55.6797 30.0685 56.0615 29.7603 56.19 29.4064C56.3157 29.0544 56.2766 28.504 56.0317 28.3103ZM55.8361 40.3716C56.1304 40.1891 56.4321 40.0997 56.4908 40.082C56.2301 39.9144 56.0066 39.8055 55.8278 39.7347C55.6462 39.663 55.3929 39.5997 55.3929 39.5997C55.2755 39.6369 55.0669 39.6555 55.0669 39.6555C55.3119 39.7077 55.5782 40.0923 55.6397 40.205C55.7048 40.3232 55.8352 40.3726 55.8352 40.3726L55.8361 40.3716ZM55.3081 41.2209C55.4124 41.1716 55.6266 40.9835 55.5549 40.5877C55.4767 40.1249 54.7913 39.662 54.7913 39.662C54.685 39.6645 54.5796 39.6415 54.484 39.595C54.3539 39.6643 54.2328 39.7493 54.1236 39.8483C54.3313 39.8138 54.6702 39.9051 54.8593 40.0439C55.0018 40.1481 55.2346 40.5095 55.0912 40.76C54.9468 41.0077 54.4197 40.8373 54.4197 40.8373C54.7289 41.463 55.2048 41.2721 55.3081 41.2209ZM56.2487 40.6622C56.4033 40.6315 56.6379 40.7739 56.6379 40.7739C56.6379 40.6557 56.5904 40.5393 56.7255 40.4527C56.853 40.3726 57.3727 40.4685 57.5915 40.4312C57.6977 40.4126 57.7387 40.3521 57.7098 40.2916C57.6427 40.1379 57.5161 39.9964 57.5161 39.9964C57.2647 40.069 56.4871 40.272 56.2068 40.4033C56.0354 40.4825 55.7514 40.6343 55.7002 40.7739C55.6294 40.9639 55.7235 41.0561 55.798 41.1408C55.9153 40.8037 56.0438 40.705 56.2487 40.6622ZM58.316 35.4529C58.5293 36.8786 58.1828 37.1356 58.1828 37.1356C57.8374 36.4698 57.951 35.5292 57.951 35.5292C57.8662 35.4305 57.6902 35.2536 57.5878 35.0869C57.7563 38.0575 58.2341 38.3993 58.2341 38.3993C58.9316 37.7623 58.7239 35.7267 58.6624 34.9528C58.5609 35.1287 58.445 35.296 58.316 35.4529ZM54.999 44.2316C54.1795 43.8004 53.3758 43.1402 52.6504 42.0954C52.6318 42.0595 52.6103 42.0253 52.5861 41.9929C52.5861 41.9929 52.3142 42.0581 52.1 41.965L52.2397 42.1922C53.0192 43.3544 53.8806 44.0826 54.7634 44.5547L54.999 44.2316ZM45.6215 32.8752C45.5702 33.2403 45.5507 33.7729 45.6047 34.1547C45.6699 34.6446 45.8096 35.1204 46.2258 35.5954C46.6486 36.0796 47.2204 36.0088 47.2204 36.0088C47.09 35.8002 46.8777 35.1884 46.806 34.8969C46.7067 34.4985 46.5902 34.1045 46.4568 33.7161C46.277 33.2747 45.9139 32.8324 45.8049 32.7011C45.7565 32.7532 45.6932 32.8128 45.6205 32.8752H45.6215ZM47.971 31.1552C48.0501 30.9345 47.9961 30.278 47.9961 30.278C47.5743 30.4708 47.0705 30.2091 47.0705 30.2091C47.076 30.712 47.4839 31.4039 47.6106 31.5929C47.8154 31.4411 47.902 31.3359 47.971 31.1552ZM45.2899 40.2916C45.2611 40.3521 45.2993 40.4126 45.4091 40.4312C45.6261 40.4685 46.1457 40.3726 46.2743 40.4527C46.4083 40.5393 46.359 40.6566 46.359 40.7739C46.359 40.7739 46.5974 40.6315 46.7473 40.6622C46.9559 40.706 47.0816 40.8037 47.1999 41.1408C47.2753 41.057 47.3694 40.9639 47.2967 40.7739C47.2474 40.6343 46.9634 40.4825 46.7939 40.4033C46.5145 40.2729 45.7379 40.0681 45.4827 39.9964C45.4827 39.9964 45.3551 40.1379 45.2899 40.2916ZM46.4056 43.2501L48.9515 46.7385L49.2514 46.2924C48.2196 44.8825 46.9466 43.1355 46.8172 42.9586L47.2176 42.6792L45.9576 42.2062L45.9791 43.5509L46.4056 43.2501ZM45.2927 33.0838C45.2291 33.1156 45.1627 33.1415 45.0944 33.1611L45.0162 33.1881L44.9379 33.1499C44.9277 33.1434 44.8262 33.0866 44.72 32.9479C44.5846 33.1097 44.4818 33.2963 44.4174 33.4973C44.2796 33.9098 44.3187 34.3149 44.4304 34.6613C44.5366 34.9919 44.9109 35.3942 44.9109 35.3942C45.046 35.2424 45.2927 34.9984 45.4119 34.5971C45.5088 34.2693 45.4576 33.8661 45.4306 33.6109C45.4119 33.4181 45.3775 33.3101 45.2927 33.0838ZM45.4119 35.086C45.3114 35.2536 45.1326 35.4305 45.046 35.5292C45.046 35.5292 45.1624 36.4698 44.8169 37.1356C44.8169 37.1356 44.4714 36.8786 44.6846 35.4529C44.5569 35.295 44.4411 35.1279 44.3382 34.9528C44.2777 35.7257 44.0682 37.7623 44.7666 38.3993C44.7666 38.3993 45.2443 38.0566 45.4119 35.086ZM55.0036 30.278C55.0036 30.278 54.9496 30.9345 55.0316 31.1552C55.0967 31.3359 55.1843 31.4411 55.3873 31.5929C55.5158 31.4039 55.9265 30.7129 55.9311 30.2091C55.9311 30.2091 55.4264 30.4708 55.0036 30.278ZM45.1819 45.0595C44.7703 45.1209 44.3717 45.1414 43.9853 45.1237C43.9918 45.1861 43.9918 45.2681 43.9546 45.3286C43.9546 45.3286 44.0328 45.4171 44.0328 45.5148C44.422 45.5279 44.829 45.5055 45.2434 45.4431C45.9325 45.3407 46.657 45.2038 47.3852 44.9347L47.144 44.6041C46.4773 44.8388 45.8124 44.9654 45.1819 45.0595ZM43.0894 45.6685C42.9663 45.805 42.8482 45.946 42.7356 46.0913C42.7104 46.1378 42.7514 46.2114 42.8268 46.2012C42.8995 46.1937 43.3064 46.1537 43.5392 45.9991C43.772 45.8426 43.9275 45.5418 43.7664 45.4338C43.6063 45.3249 43.3567 45.377 43.0894 45.6685ZM50.5374 48.0524C50.4378 47.9193 50.1705 47.5533 49.8204 47.0747L49.5224 47.517L50.5803 48.966L51.3811 47.5729L51.098 47.0747C50.8885 47.4416 50.6641 47.8345 50.5374 48.0524ZM57.0169 43.549L57.043 42.2043L55.7784 42.6764L56.1798 42.9567L52.4623 48.0534L50.5719 44.7037L50.3391 45.0529L48.6573 47.5375L48.2354 47.2637L48.2308 48.5842L49.5075 48.0897L49.0791 47.8131C49.311 47.4686 50.2245 46.1229 50.5281 45.6704L52.4195 48.966L56.5932 43.2482L57.0169 43.549ZM41.4365 33.8195C41.4216 33.7888 41.4123 33.7562 41.4048 33.7357C41.3756 33.6391 41.3621 33.5385 41.3648 33.4377C39.7798 35.0916 38.8607 35.3747 38.8607 35.3747C39.4493 34.2134 40.901 33.4936 41.403 33.2151C41.4365 33.0934 41.4941 32.9798 41.5725 32.8808C41.552 32.8873 41.5296 32.8883 41.5073 32.8901C41.2279 32.9237 41.0053 32.8743 40.8368 32.8007C40.1756 33.2691 39.277 33.9797 38.5739 34.7563C37.8708 35.5339 37.6184 36.2537 37.4899 37.1654C37.4899 37.1654 38.803 37.1198 39.6336 35.9958C40.4624 34.8699 40.8768 34.3568 41.4365 33.8195ZM40.5621 32.6219C40.5165 32.5814 40.4753 32.5361 40.4392 32.4869C40.4392 32.4869 38.9883 33.7403 37.4564 34.2842C37.4564 34.2842 37.7823 33.7022 38.3904 33.2803C39.128 32.7681 39.6802 32.5968 40.3255 32.3044L40.3786 32.2085C40.3991 32.1759 40.4159 32.147 40.4392 32.12C39.8981 32.3239 37.9751 33.0335 37.353 33.3492C36.7291 33.6649 35.8296 34.3801 35.3397 35.8356C35.3397 35.8356 36.6379 35.9483 37.7088 35.0822C38.7797 34.2134 40.0285 33.0056 40.5621 32.6219ZM43.0168 45.3118C42.9598 45.278 42.896 45.2571 42.8301 45.2507C42.7641 45.2442 42.6975 45.2524 42.635 45.2746C42.473 45.3323 41.8835 45.6713 41.8453 45.8324C41.8043 45.9916 41.8863 46.0699 41.9785 46.1062C42.0688 46.1406 42.1787 46.1742 42.2606 46.1844C42.3302 46.1863 42.3993 46.1726 42.4629 46.1444C42.5266 46.1162 42.5831 46.0742 42.6285 46.0214C42.703 45.9283 42.9796 45.6052 43.0168 45.5288C43.0568 45.459 43.0773 45.3519 43.0168 45.3118ZM54.3424 47.5375L54.0435 47.0923L53.725 47.5226C53.8107 47.6455 53.875 47.747 53.9197 47.8141L53.4913 48.0906L54.7708 48.5851L54.7634 47.2637L54.3424 47.5384V47.5375ZM42.5922 44.6404C42.5884 44.4905 42.4525 44.4514 42.3286 44.4514C42.2057 44.4514 41.6907 44.4635 41.416 44.2623C41.3978 44.2494 41.3807 44.2351 41.3648 44.2195C41.0817 43.9774 40.9206 43.6049 40.9206 43.1951C40.9206 42.4138 41.5715 41.7741 42.3752 41.7741C43.1779 41.7741 43.826 42.4138 43.826 43.1961C43.826 43.3013 43.8056 43.4773 43.8056 43.4773C43.8717 43.3544 44.111 42.8115 44.1594 42.7118C44.0459 42.3273 43.8105 41.9902 43.4887 41.7512C43.1669 41.5121 42.7761 41.3842 42.3752 41.3867C41.6423 41.3867 41.01 41.802 40.7083 42.4055C40.8219 41.6884 41.1879 41.0421 41.4458 40.8047C41.7559 40.5197 42.2811 40.4275 42.2811 40.4275C41.9366 40.4834 41.4803 40.2748 40.9718 39.8166C40.4876 39.3855 40.2417 39.0055 40.2268 38.6898C40.2557 39.1359 40.2417 39.3855 40.1114 39.7496C39.9372 40.2431 39.4576 41.1585 39.6299 42.1894C39.723 42.7556 40.1421 43.5984 40.8461 44.2875C40.9951 44.4421 41.05 44.6711 41.0687 44.7875C41.0687 44.7875 42.1033 44.7875 42.3482 44.8118C42.3482 44.8118 42.595 44.7875 42.5922 44.6404ZM42.4078 44.9272C42.2867 44.9086 41.8984 44.9189 41.6656 44.9514C41.4114 44.9934 41.1217 45.0418 41.0901 45.1796C41.0621 45.3118 41.1543 45.4478 41.2838 45.6471C41.362 45.77 41.552 45.6983 41.6563 45.6601C41.7615 45.6229 42.3603 45.309 42.4553 45.2057C42.5512 45.1032 42.5922 44.957 42.4087 44.9263L42.4078 44.9272ZM65.6495 33.3502C65.0283 33.0345 63.1035 32.3249 62.5643 32.1209C62.5848 32.1489 62.6034 32.1768 62.622 32.2094L62.6779 32.3053C63.3233 32.5977 63.8736 32.7691 64.6149 33.2812C65.2174 33.7031 65.5442 34.2851 65.5442 34.2851C64.0133 33.7413 62.5643 32.4878 62.5643 32.4878C62.5264 32.5362 62.4847 32.5813 62.4395 32.6229C62.9703 33.0065 64.221 34.2143 65.2909 35.0832C66.3628 35.9492 67.6581 35.8365 67.6581 35.8365C67.1702 34.381 66.2706 33.6658 65.6495 33.3502ZM66.644 31.8267C65.9344 31.6153 64.3467 31.429 63.7116 31.3033C63.7349 31.348 63.7553 31.3946 63.7758 31.4458C64.301 31.579 64.9892 31.8127 65.6178 32.0678C66.1952 32.3072 66.7465 32.6862 66.7465 32.6862C65.6318 32.6564 64.5068 32.2252 63.6669 31.8583C63.464 31.9762 63.2362 32.0444 63.002 32.0576C63.4043 32.1619 64.0617 32.363 66.1682 33.3334C68.2774 34.3019 69.393 33.9666 69.393 33.9666C68.6322 32.5456 67.349 32.039 66.644 31.8267ZM55.459 19.9842H55.7356V19.5465H56.0829V19.3109H55.7356V18.9365H55.459V19.3109H55.1144V19.5456H55.459V19.9842ZM64.3774 30.0452C64.3681 30.0545 64.2563 30.1421 64.0803 30.2464C64.8412 30.3125 66.4587 30.386 67.2931 30.8023C67.2931 30.8023 65.7528 31.0016 63.7237 30.4261C63.5169 30.5192 63.3596 30.5667 63.0904 30.5946C63.2366 30.6878 63.3773 30.8051 63.502 30.9643C64.2442 31.1748 65.5079 31.402 67.5967 31.5492C69.6845 31.6944 70.7973 31.3219 70.7973 31.3219C70.071 30.887 68.9116 30.4456 68.1275 30.2976C67.3406 30.1486 65.2816 30.1653 64.3774 30.0452ZM39.9987 32.0576C39.7647 32.0448 39.5371 31.9765 39.3347 31.8583C38.4947 32.2252 37.3698 32.6564 36.2551 32.6871C36.2551 32.6871 36.8046 32.3072 37.3828 32.0678C37.9821 31.8208 38.5967 31.613 39.223 31.4458C39.2435 31.3978 39.2652 31.3503 39.2881 31.3033C38.653 31.4281 37.0681 31.6153 36.3585 31.8276C35.6508 32.0399 34.3685 32.5456 33.6086 33.9657C33.6086 33.9657 34.7242 34.3019 36.8306 33.3334C38.9361 32.363 39.5973 32.1619 39.9987 32.0576ZM62.1639 32.8017C61.9525 32.8912 61.7208 32.9221 61.4934 32.8911C61.4714 32.8902 61.4495 32.8871 61.4282 32.8817C61.5157 32.9963 61.5679 33.1099 61.5986 33.217C62.0987 33.4954 63.5542 34.2134 64.1409 35.3765C64.1409 35.3765 63.2208 35.0925 61.634 33.4396C61.6402 33.5704 61.6167 33.7009 61.5651 33.8214C62.1229 34.3568 62.5382 34.8718 63.367 35.9967C64.1958 37.1207 65.5098 37.1663 65.5098 37.1663C65.3841 36.2547 65.1308 35.5348 64.4268 34.7582C63.7237 33.9806 62.826 33.2701 62.1639 32.8017ZM60.3666 45.2736C60.3034 45.2517 60.2362 45.2438 60.1696 45.2504C60.1031 45.257 60.0387 45.2779 59.9811 45.3118C59.9243 45.3509 59.9438 45.459 59.9811 45.5288C60.0248 45.6052 60.2977 45.9292 60.374 46.0214C60.4191 46.0739 60.4751 46.1157 60.5383 46.1439C60.6014 46.1721 60.67 46.1859 60.7391 46.1844C60.836 46.1687 60.9309 46.1425 61.0222 46.1062C61.1134 46.0689 61.1945 45.9916 61.1563 45.8324C61.1153 45.6713 60.5268 45.3323 60.3666 45.2736ZM59.2361 45.4348C59.075 45.5428 59.2296 45.8436 59.4624 46C59.6952 46.1546 60.0993 46.1946 60.1748 46.2021C60.2483 46.2114 60.293 46.1378 60.2642 46.0922C60.1517 45.9473 60.0343 45.8063 59.9121 45.6694C59.6421 45.378 59.3925 45.3267 59.2361 45.4348ZM62.7738 38.6889C62.7617 39.0046 62.5112 39.3836 62.0288 39.8157C61.5185 40.2739 61.0632 40.4815 60.7195 40.4266C60.7195 40.4266 61.2457 40.5178 61.5548 40.8037C61.8156 41.0412 62.1769 41.6875 62.2905 42.4045C62.1353 42.0968 61.8974 41.8384 61.6034 41.6584C61.3094 41.4784 60.9711 41.384 60.6264 41.3858C60.2252 41.3823 59.8338 41.5099 59.5116 41.749C59.1895 41.9882 58.9541 42.3259 58.8412 42.7109C58.8878 42.8105 59.1299 43.3534 59.1951 43.4764C59.1951 43.4764 59.1746 43.3004 59.1746 43.1951C59.1746 42.4129 59.8246 41.7722 60.6264 41.7722C61.4291 41.7722 62.0819 42.4129 62.0819 43.1951C62.0819 43.6049 61.9171 43.9774 61.6349 44.2186C61.6172 44.2335 61.6042 44.2465 61.5856 44.2614C61.3109 44.4625 60.794 44.4504 60.673 44.4504C60.5491 44.4504 60.4141 44.4896 60.4094 44.6395C60.4057 44.7866 60.6497 44.8108 60.6497 44.8108C60.8974 44.7866 61.9329 44.7866 61.9329 44.7866C61.9497 44.6702 62.0065 44.4411 62.1573 44.2865C62.8586 43.5974 63.2786 42.7547 63.3726 42.1885C63.543 41.1576 63.0625 40.2422 62.8856 39.7486C62.7571 39.3855 62.745 39.135 62.7738 38.6889ZM59.0154 45.1237C58.6326 45.1423 58.2303 45.1219 57.8178 45.0604C57.1883 44.9663 56.5234 44.8397 55.8566 44.6041L55.6164 44.9338C56.3437 45.2047 57.0719 45.3426 57.7582 45.4441C58.1745 45.5074 58.5777 45.5288 58.9716 45.5167C58.9716 45.418 59.0461 45.3286 59.0461 45.3286C59.0155 45.2649 59.0048 45.1935 59.0154 45.1237ZM61.3341 44.9505C61.1041 44.9179 60.7158 44.9067 60.5919 44.9263C60.4104 44.9561 60.4513 45.1032 60.5435 45.2057C60.6413 45.3081 61.2401 45.6219 61.3453 45.6592C61.4478 45.6974 61.6368 45.7691 61.7197 45.6461C61.8472 45.4469 61.9385 45.3109 61.9115 45.1787C61.8798 45.0408 61.5893 44.9924 61.3341 44.9505ZM68.1843 28.1213C66.0015 28.261 64.5488 28.761 63.4937 29.0739C63.6492 29.1298 63.7749 29.1913 63.8801 29.2509C66.2408 28.5953 67.9217 28.9361 67.9217 28.9361C67.2326 29.1624 65.3058 29.4548 64.1474 29.4483C64.2638 29.5554 64.3392 29.6625 64.4035 29.7584C65.3924 29.7491 66.7474 29.9744 68.4152 29.6187C70.0831 29.2648 71.5404 28.261 71.5404 28.261C70.9445 28.1092 69.786 28.0189 68.1843 28.1213ZM50.8392 20.0112C50.773 19.5363 50.598 18.3927 50.4089 18.2512C50.3111 18.1795 50.1836 18.1869 50.0402 18.2307C49.894 18.2754 49.7394 18.3704 49.7328 18.4951C49.7235 18.7047 49.9685 19.3305 50.3298 20.176C50.544 20.0699 50.6557 20.0456 50.8392 20.0112ZM35.4049 31.5492C37.4927 31.4011 38.7592 31.1739 39.5023 30.9625C39.6166 30.8168 39.7552 30.692 39.9121 30.5937C39.642 30.5658 39.4837 30.5192 39.2788 30.4261C37.2488 31.0007 35.7094 30.8014 35.7094 30.8014C36.5429 30.386 38.1614 30.3115 38.9212 30.2454C38.8168 30.1863 38.7171 30.1191 38.6232 30.0443C37.72 30.1653 35.661 30.1476 34.876 30.2957C34.0909 30.4447 32.9316 30.8861 32.2043 31.3219C32.2043 31.3219 33.319 31.6954 35.4049 31.5492ZM50.9947 19.9935C51.0859 19.9832 51.1809 19.9786 51.2768 19.9749C51.2191 19.5186 51.0571 18.7633 50.9649 18.4663C50.869 18.1664 50.7479 17.9513 50.5486 17.8982C50.5486 17.8982 50.7041 18.3154 50.7907 18.7438C50.8745 19.1731 50.9388 19.5838 50.9956 19.9935H50.9947ZM50.6557 20.9983C50.6557 20.9983 50.2441 21.4173 49.8437 21.5105C49.8437 21.5105 50.0076 21.0896 50.6557 20.9983ZM50.4443 21.4732C50.7097 21.3186 50.9379 20.9685 50.9881 20.8055C50.7637 20.7748 50.1929 20.8363 49.8427 21.0812C49.593 21.2464 49.3916 21.4749 49.2589 21.7433C49.2589 21.7433 49.8846 21.7898 50.4443 21.4732ZM47.266 19.9832H47.5454V19.5456H47.8899V19.31H47.5454V18.9356H47.266V19.31H46.9177V19.5446H47.266V19.9823V19.9832ZM52.3487 20.9983C52.995 21.0896 53.1607 21.5105 53.1607 21.5105C52.7575 21.4173 52.3487 20.9983 52.3487 20.9983ZM52.0134 20.8055C52.0665 20.9685 52.2947 21.3186 52.5582 21.4732C53.1169 21.7898 53.7437 21.7433 53.7437 21.7433C53.6124 21.4744 53.411 21.246 53.1607 21.0821C52.8096 20.8363 52.2397 20.7748 52.0144 20.8055H52.0134ZM55.0604 21.3792C55.1629 21.3605 55.1433 21.368 55.3985 21.3475C55.3491 21.1212 55.2588 20.5364 55.1163 20.406C54.9803 20.2822 54.7801 20.271 54.6805 20.2757C54.5818 20.2822 54.4756 20.3827 54.5184 20.5131C54.5585 20.6481 54.9999 21.2954 55.0604 21.3792ZM51.3597 17.7734H51.6409V17.333H51.9864V17.0992H51.6419V16.7267H51.3597V17.0992H51.0152V17.332H51.3597V17.7734ZM52.6727 20.176C53.0369 19.3305 53.278 18.7047 53.2687 18.4961C53.2632 18.3704 53.1095 18.2754 52.9661 18.2307C52.819 18.1869 52.6886 18.1795 52.5936 18.2512C52.4055 18.3927 52.2286 19.5363 52.1634 20.0112C52.3496 20.0456 52.4614 20.0699 52.6727 20.176ZM52.0078 19.9935C52.0637 19.5838 52.1289 19.174 52.2127 18.7438C52.2993 18.3154 52.4548 17.8973 52.4548 17.8973C52.2528 17.9513 52.1326 18.1673 52.0395 18.4653C51.9445 18.7633 51.7853 19.5195 51.7266 19.9739C51.8216 19.9786 51.9157 19.9832 52.0078 19.9935ZM47.6041 21.3475C47.8592 21.368 47.8397 21.3615 47.9412 21.3792C48.0008 21.2954 48.4422 20.6481 48.4859 20.5131C48.526 20.3827 48.4207 20.2822 48.3202 20.2766C48.2215 20.271 48.0194 20.2822 47.8862 20.406C47.7447 20.5364 47.6543 21.1212 47.605 21.3466L47.6041 21.3475ZM39.6644 25.6628L39.859 25.742C40.0713 25.8286 40.2808 25.9245 40.4643 26.0139C40.2469 25.7886 40.0563 25.539 39.8962 25.2699C39.7952 25.0956 39.7178 24.9086 39.6662 24.7139L39.6066 24.5109C38.9771 24.0993 38.328 23.4279 37.8839 23.0302C37.4378 22.6326 36.8046 21.8327 36.4563 20.8325C36.8725 21.0951 37.2497 21.422 37.6948 21.9621C38.3439 22.7527 39.0227 23.6067 39.5927 24.3153L39.5731 24.0574C39.5694 23.9391 39.5731 23.8274 39.5759 23.7249L39.574 23.6961C39.0935 22.709 38.3141 21.4946 37.706 20.6379C37.2124 19.9395 36.081 18.6544 35.2941 18.0025C35.1106 18.8071 34.8192 20.311 35.5176 21.6064C36.2142 22.9008 37.9304 24.7633 39.6644 25.6628ZM39.3086 26.8967C39.2018 26.7521 39.1002 26.6036 39.0041 26.4516C38.152 26.0474 37.9351 25.9208 37.5142 25.6936C36.9474 25.3797 36.4065 25.0213 35.8966 24.6217C35.4049 24.2418 34.795 23.467 34.795 23.467C35.4571 23.6858 36.1229 24.1524 36.5671 24.4792C37.1426 24.9039 38.0682 25.5874 38.8486 26.202L38.5655 25.3937C37.6538 24.6962 36.3399 23.4446 35.9022 23.0191C35.4673 22.5907 33.7855 21.1724 33.0107 21.0216C33.0107 21.0216 32.7863 22.6261 33.5834 23.7026C34.3815 24.7782 36.9619 26.5149 39.3086 26.8967ZM38.6 29.7584C38.6633 29.6634 38.7387 29.5554 38.8542 29.4483C37.6967 29.4548 35.7718 29.1624 35.0827 28.9361C35.0827 28.9361 36.7617 28.5953 39.1215 29.2518C39.2276 29.1913 39.3543 29.1307 39.5107 29.0739C38.4519 28.761 37.002 28.261 34.8173 28.1213C33.2156 28.0189 32.0609 28.1092 31.4621 28.261C31.4621 28.261 32.9213 29.2648 34.5873 29.6187C36.2561 29.9735 37.6101 29.7491 38.6 29.7584ZM42.4124 27.1416C42.1973 26.8716 42.0288 26.4963 41.9058 26.0558C41.8043 25.6964 41.5734 24.8052 41.4374 24.5752C41.3015 24.3442 40.8079 23.5368 39.845 23.2854C39.845 23.2854 39.5889 24.3386 40.0732 25.1693C40.4894 25.8891 41.3471 26.6444 42.4124 27.1416ZM33.9568 27.3307C35.5297 27.9695 38.4519 28.3364 39.9363 28.9696C39.2462 28.6484 39.1215 28.0663 39.1159 28.0365C38.2824 27.8801 37.8373 27.8261 36.8101 27.5048C35.7737 27.1817 35.1442 26.7747 35.1442 26.7747C35.5912 26.8166 36.1192 26.8557 36.8371 27.0522C37.7423 27.299 38.207 27.4583 39.2053 27.8317C39.452 27.6706 39.7482 27.5933 40.0136 27.5849C39.2984 27.2729 37.2571 26.5261 35.9162 26.1247C34.7707 25.7802 33.2836 25.3425 31.4453 25.3909C31.4453 25.3909 31.8336 26.4665 33.9568 27.3307ZM46.874 21.3792C46.9773 21.3605 46.9578 21.368 47.212 21.3475C47.1636 21.1212 47.0723 20.5364 46.9308 20.406C46.7967 20.2822 46.5955 20.271 46.4977 20.2757C46.3953 20.2822 46.2919 20.3827 46.3339 20.5131C46.373 20.6481 46.8162 21.2954 46.874 21.3792ZM42.8436 27.2925C43.2906 27.6408 43.4806 27.9872 43.4806 27.9872C42.4124 27.3102 41.7382 27.732 41.7382 27.732C41.945 28.83 42.8799 29.032 42.8799 29.032C41.8695 28.9203 41.4579 29.4166 41.4579 29.4166C41.8304 30.2212 42.8054 30.2594 42.8054 30.2594C41.945 30.9196 42.0967 31.3936 42.0967 31.3936C43.0494 31.6143 43.5737 31.1562 43.5737 31.1562C42.8436 32.0911 43.4061 32.7849 43.4061 32.7849C44.3783 32.6582 44.6986 31.9049 44.6986 31.9049C44.6027 32.7523 45.0339 32.9693 45.0339 32.9693C45.5581 32.8017 45.8217 32.3472 45.8217 32.3472C46.102 32.933 46.7566 33.0438 46.7566 33.0438C47.0388 32.5102 46.8339 32.0176 46.8339 32.0176C47.3964 32.1852 47.5649 31.8518 47.5649 31.8518C47.2064 31.4663 47.0025 30.8647 47.0025 30.8647C46.0275 31.2474 44.8271 31.0472 44.4891 30.6617C44.1566 30.2771 44.7163 29.2891 45.0171 28.5925C45.3151 27.8969 44.9221 27.4024 44.5692 27.164C42.9758 26.1014 42.3947 25.3136 42.039 24.5463C41.85 25.9739 42.3947 26.9423 42.8436 27.2925ZM44.5775 19.6815C44.7899 19.6284 45.0739 19.4096 45.3039 19.2308C45.5321 19.0483 45.682 19.0632 45.682 19.0632C45.6114 19.0037 45.5281 18.9612 45.4385 18.9391C45.3488 18.917 45.2553 18.9158 45.1652 18.9356C44.7368 19.0194 44.2283 19.5037 44.2283 19.5037C44.2065 19.571 44.2023 19.6428 44.2162 19.7123C44.3196 19.7216 44.3652 19.7374 44.5775 19.6815ZM45.195 20.2235C45.0953 20.4107 44.9472 20.6463 45.0134 20.9815C45.0907 21.3587 45.7137 21.5021 45.7137 21.5021C45.6 21.3885 45.5032 21.2488 45.4939 21.1156C45.4753 20.8446 45.6382 20.6221 45.749 20.4517C45.8589 20.2822 46.0703 19.8352 46.0731 19.6582C46.0778 19.485 45.9148 19.2876 45.7248 19.1004C45.749 19.1861 45.7137 19.3146 45.6475 19.4701C45.574 19.6406 45.2871 20.0475 45.195 20.2244V20.2235ZM43.705 21.7181C43.705 21.6436 43.7078 21.5729 43.719 21.5021C43.745 21.3186 43.7469 21.1659 43.7273 21.0365C43.4787 21.1296 43.3101 21.1883 42.9684 21.7274C42.9684 21.7274 43.515 21.3997 43.705 21.7181ZM43.9238 21.5291C43.8754 21.869 43.9471 22.2331 44.1818 22.5721C44.2201 22.2804 44.291 21.994 44.3932 21.7181C44.5328 21.3503 44.4518 20.8176 44.2823 20.4954C44.1212 20.1835 44.0328 19.8911 44.0598 19.567C44.0598 19.567 43.7385 19.6731 43.5513 19.7868C43.5215 20.1593 43.746 20.5364 43.8521 20.7478C43.9778 20.9992 43.9518 21.3289 43.9238 21.5291ZM46.0889 22.2052C46.1895 22.4603 46.5983 22.762 46.5983 22.762C46.4701 22.4908 46.3937 22.1981 46.373 21.8988C45.9632 21.7759 45.9865 21.9519 46.0889 22.2052ZM45.9586 35.5888C45.8274 35.4224 45.7179 35.24 45.6326 35.0459C45.8003 36.3776 45.858 37.2762 46.5946 38.1376C46.5946 38.1376 47.0379 37.5621 46.7529 36.1588C46.63 36.1252 46.4894 36.0656 46.3571 35.979C46.3571 35.979 46.5248 36.5489 46.4177 37.1198C46.4177 37.1198 46.1551 36.9335 45.9586 35.5888ZM47.9914 24.5752C48.1479 24.6999 48.2811 24.8927 48.3425 25.2186C48.4319 25.674 48.7038 26.1629 48.7858 26.311L48.8193 26.3035C48.77 25.9916 48.9683 25.3416 49.0223 25.2475C49.0223 25.2475 48.7318 25.0706 48.5986 24.888C48.5008 24.7521 48.3304 24.5249 47.8536 24.2362C47.7156 24.2553 47.5793 24.2849 47.4457 24.3247C47.4457 24.3247 47.8089 24.428 47.9914 24.5761V24.5752ZM53.17 40.5812C53.4215 40.8829 53.9634 41.7555 54.7997 41.7638C54.7997 41.7638 54.6758 41.3541 54.3052 41.1176C53.9327 40.8829 53.4596 40.5812 53.2455 40.218C53.0341 39.8557 52.8087 39.6872 52.6551 39.6201C52.6225 39.8855 52.4912 40.1305 52.3477 40.3865C52.3477 40.3865 52.8292 42.5554 54.5678 42.7239C54.5678 42.7239 54.5306 42.2742 54.0174 41.9305C53.5006 41.5897 52.7323 41.057 52.7873 40.2515C52.7873 40.2515 52.9242 40.2795 53.17 40.5812ZM46.3339 40.0252C46.3339 40.0252 46.7408 39.7542 47.1869 39.5875C47.4774 39.4767 47.6199 39.1806 47.9281 38.8835C47.5817 39.0065 46.7985 39.1285 46.4735 39.2225C46.1467 39.3184 45.9092 39.4814 45.5972 39.8157C45.5972 39.8157 46.0778 39.9479 46.3339 40.0252ZM48.8854 24.8536C48.9227 24.3917 48.6927 24.1207 48.3565 23.8879C48.092 23.6989 47.5398 23.5303 47.428 23.4996C47.6534 23.8227 48.0818 24.1887 48.3174 24.3209C48.6172 24.4858 48.8854 24.8536 48.8854 24.8536ZM51.5013 21.11C51.5572 21.1103 51.6109 21.0884 51.6507 21.0491C51.6905 21.0098 51.7131 20.9564 51.7136 20.9005C51.7133 20.8729 51.7077 20.8456 51.6968 20.8201C51.686 20.7947 51.6703 20.7716 51.6506 20.7522C51.6309 20.7329 51.6076 20.7176 51.5819 20.7072C51.5563 20.6969 51.5289 20.6917 51.5013 20.6919C51.3821 20.6919 51.2843 20.785 51.2843 20.9005C51.2853 20.9572 51.3086 21.0111 51.3493 21.0505C51.39 21.09 51.4446 21.1108 51.5013 21.11ZM54.6414 22.3262C55.1945 22.3951 55.8427 22.3672 55.8427 22.3672C55.8073 22.5674 55.7244 22.7183 55.5782 22.8114C55.5437 22.3756 54.6414 22.3709 54.6414 22.3709V22.3262ZM52.8832 23.3348C53.4652 23.2118 53.6496 22.8943 53.7493 22.7714C53.7493 22.7714 53.6729 23.0759 53.7073 23.1979C53.7073 23.1979 53.9634 23.183 54.1637 22.939C54.1637 22.939 54.0174 23.183 53.9876 23.3897C53.9876 23.3897 54.1478 23.4083 54.4309 23.2407C54.4309 23.2407 54.3741 23.3934 54.3639 23.5694C54.3639 23.5694 55.0325 23.359 55.3594 23.061C55.3594 23.061 55.364 23.2658 55.3482 23.3832C55.3482 23.3832 56.3874 23.2807 56.4657 21.7954C56.4657 21.7954 55.7738 22.0478 55.0781 22.0152C54.3834 21.9807 53.1039 21.9677 52.6876 21.7694C52.6876 21.7694 52.7566 22.0254 53.0881 22.1716C53.0881 22.1716 52.9158 22.1716 52.7435 22.3178C52.7435 22.3178 52.8441 22.5283 53.1374 22.6391C53.1374 22.6391 52.6094 23.1764 52.0423 23.1392C52.0423 23.1392 52.3003 23.4567 52.8832 23.3348ZM55.5968 21.7526C55.9861 21.7526 56.3018 21.6986 56.3018 21.6306C56.3018 21.5589 55.9861 21.5058 55.5968 21.5058C55.2094 21.5058 54.8928 21.5589 54.8928 21.6306C54.8928 21.6986 55.2094 21.7526 55.5968 21.7526ZM55.3007 32.0129C55.2932 32.0036 55.2867 31.9989 55.283 31.9906L55.2485 32.0362C55.1236 32.1559 54.979 32.2532 54.8211 32.3239C54.8211 32.3239 54.5119 32.8966 54.8863 33.5886C55.2569 34.2823 55.5707 34.9882 55.7235 35.3802C55.7235 35.3802 55.9227 35.3514 56.1444 34.2683C56.2962 33.5345 56.4861 33.3502 56.6826 33.0978C56.4657 33.204 56.2943 33.2356 56.2775 33.2393L56.1304 33.2635L56.0606 33.1332C55.9468 32.9221 55.8885 32.6857 55.8911 32.4459C55.8911 32.3807 55.8939 32.3174 55.9004 32.2625C55.554 32.2699 55.3696 32.0995 55.3007 32.0129ZM55.9218 20.3036C55.9218 20.1444 55.7235 20.0969 55.621 20.0969H55.5652C55.4627 20.0969 55.2653 20.1434 55.2653 20.3036C55.2653 20.4647 55.5223 20.853 55.5894 21.0244H55.5959C55.6648 20.853 55.9218 20.4647 55.9218 20.3036ZM49.7515 24.6245C49.4814 24.3209 49.1369 23.5694 49.1369 23.5694C49.027 23.5582 48.8975 23.5257 48.7932 23.4996C48.7998 23.5955 48.796 23.7901 48.796 23.7901C48.6815 23.7622 48.3351 23.6598 48.3351 23.6598C48.7457 23.941 48.8733 24.0444 49.0707 24.2427C49.4209 24.6003 49.6174 25.0454 49.6174 25.0454C49.7673 24.7912 49.7515 24.6245 49.7515 24.6245ZM49.1369 38.8938C48.7457 39.0074 48.6573 39.4432 48.6573 39.4432C48.8296 39.5224 48.9041 39.7272 49.2533 39.7272C49.6295 39.7272 50.0606 39.3575 50.354 38.8575C50.5616 38.4989 50.6585 37.7819 50.6585 37.6543C50.3586 38.1879 49.6192 38.7532 49.1369 38.8938ZM51.072 29.858C51.2359 30.102 51.3569 30.1523 51.5003 30.2184C51.6419 30.1523 51.7611 30.102 51.9268 29.858C52.0525 29.6662 52.1736 29.3133 52.1056 29.06C52.02 28.7489 51.8495 28.6251 51.7443 28.4305C51.6605 28.5077 51.6084 28.5683 51.5041 28.626H51.4994C51.3942 28.5683 51.3411 28.5077 51.2545 28.4305C51.1483 28.626 50.9798 28.7489 50.8913 29.06C50.8252 29.3133 50.9444 29.6662 51.072 29.858ZM51.4966 28.3466H51.5041C51.6977 28.1827 51.871 27.9388 51.9268 27.7954C51.979 27.6519 51.9929 27.4415 51.8644 27.2795C51.7099 27.0867 51.5162 26.8716 51.5041 26.6956H51.4947C51.4798 26.8716 51.288 27.0867 51.1334 27.2795C51.0049 27.4415 51.018 27.6519 51.0748 27.7954C51.1278 27.9388 51.302 28.1827 51.4966 28.3466ZM48.9823 41.9305C48.4673 42.2742 48.4347 42.7239 48.4347 42.7239C50.1705 42.5554 50.651 40.3865 50.651 40.3865C50.5076 40.1305 50.3773 39.8855 50.3409 39.6211C50.1919 39.6881 49.9666 39.8557 49.7524 40.2171C49.5382 40.5812 49.0661 40.8829 48.6945 41.1176C48.3239 41.3532 48.1982 41.7629 48.1982 41.7629C49.0391 41.7555 49.5801 40.8829 49.826 40.5812C50.0737 40.2795 50.2106 40.2515 50.2106 40.2515C50.2664 41.057 49.4972 41.5897 48.9823 41.9305ZM54.6404 23.8879C54.308 24.1207 54.078 24.3908 54.1134 24.8536C54.1134 24.8536 54.3844 24.4858 54.6814 24.3209C54.9198 24.1896 55.3482 23.8227 55.5707 23.4996C55.4627 23.5303 54.9096 23.6989 54.6404 23.8879ZM53.8629 23.5694C53.8629 23.5694 53.5164 24.3209 53.2482 24.6254C53.2482 24.6254 53.2324 24.7912 53.3823 25.0445C53.3823 25.0445 53.5779 24.6003 53.9271 24.2436C54.1264 24.0444 54.253 23.941 54.6637 23.6607C54.6637 23.6607 54.3173 23.7613 54.2037 23.7901C54.2037 23.7901 54.1962 23.5946 54.2083 23.4996C54.1041 23.5257 53.9755 23.5582 53.8638 23.5694H53.8629ZM51.9166 18.2651C51.9166 18.0388 51.7303 17.8554 51.5003 17.8554C51.2675 17.8554 51.0813 18.0388 51.0813 18.2651C51.0813 18.5529 51.4472 19.2103 51.4929 19.5167H51.5068C51.5534 19.2094 51.9166 18.5529 51.9166 18.2651ZM55.1461 24.2371C54.6712 24.5249 54.497 24.7521 54.4011 24.8871C54.2698 25.0706 53.9802 25.2475 53.9802 25.2475C54.0323 25.3416 54.2326 25.9925 54.1823 26.3035L54.213 26.311C54.295 26.162 54.5697 25.674 54.6572 25.2186C54.7177 24.8927 54.8546 24.6999 55.0092 24.5761C55.1899 24.428 55.554 24.3247 55.554 24.3247C55.4205 24.285 55.2841 24.2557 55.1461 24.2371ZM53.9206 26.8129C53.8629 27.0187 53.8461 27.3325 53.9206 27.6296C53.9783 27.8559 54.1199 28.1502 54.3899 28.315C54.6227 28.4575 55.1722 28.4901 55.3826 27.9816C55.3826 27.9816 54.3778 28.057 53.9206 26.8129ZM48.6107 28.315C48.8808 28.1502 49.0205 27.8559 49.0782 27.6296C49.1451 27.3615 49.1451 27.081 49.0782 26.8129C48.6219 28.057 47.6162 27.9816 47.6162 27.9816C47.8248 28.4901 48.377 28.4575 48.6107 28.315ZM44.3215 32.6452C44.0577 32.8311 43.7517 32.9483 43.4312 32.986C42.297 34.0132 42.4283 34.4332 42.4283 34.4332C42.9991 34.5179 43.5132 34.233 43.9015 33.934C44.1548 33.7329 44.3326 33.4563 44.3913 33.204C44.4453 32.9525 44.3708 32.7756 44.3215 32.6452ZM39.3701 31.6413C39.3701 31.6413 39.7649 31.9701 40.4848 31.8276C41.0957 31.7037 41.6255 31.4495 41.931 31.0174C42.0241 30.8805 42.0893 30.6673 42.2895 30.4512C41.8397 30.3695 41.3784 30.3755 40.9308 30.4689C40.3144 30.5816 39.6858 30.7231 39.3701 31.6413ZM41.6255 27.5625C41.6423 27.5532 41.8407 27.4322 42.1806 27.4061C41.8956 27.1975 41.2102 26.6378 40.7297 26.3696C40.1989 26.08 39.3235 25.6964 38.8784 25.6405C38.8784 25.6405 39.2975 26.7114 39.7817 27.1463C40.2892 27.5933 40.6422 27.7609 41.5082 27.6361L41.6255 27.5625ZM42.77 44.8108C42.6853 44.9338 42.7449 45.0669 42.9833 45.1787C43.2198 45.2876 43.6677 45.3779 43.759 45.2597C43.8447 45.1358 43.7227 44.9338 43.2198 44.8052C43.1425 44.7866 42.8343 44.7121 42.77 44.8108ZM38.7546 29.8897C38.7546 29.8897 39.3599 30.386 40.0518 30.4019C40.7474 30.4242 41.3899 30.2268 41.6693 30.0257C41.4998 29.8813 41.3632 29.7021 41.2689 29.5004L41.2195 29.3868C40.6841 29.1726 40.1281 29.0637 39.5806 29.262C39.0358 29.4623 38.8905 29.6904 38.7546 29.8897ZM39.3189 27.9993C39.3189 27.9993 39.4493 28.6735 40.3395 28.9054C41.1795 29.1196 41.4887 29.0637 41.8295 28.9519C41.9226 28.9175 42.025 28.8849 42.1414 28.8616C41.8494 28.6053 41.6462 28.263 41.5613 27.8838C41.3126 27.9397 40.7306 27.9397 40.4745 27.8466C40.2157 27.7488 39.7128 27.746 39.3198 27.9984L39.3189 27.9993ZM52.4716 45.6722C52.615 45.8873 52.8981 46.3064 53.1803 46.7217L53.4969 46.2887L52.6616 45.0548L52.425 44.7056L51.613 46.1369L51.911 46.6584C52.1513 46.2412 52.3654 45.8659 52.4716 45.6722ZM61.6563 44.0053C61.4626 43.7911 61.2205 43.6486 60.9998 43.6049C60.3694 43.4801 60.1496 43.888 59.7855 44.0146C59.4242 44.1403 59.1895 43.888 58.845 43.0741C58.4995 42.2583 57.8932 41.1632 57.5301 40.7553C57.4109 40.6212 57.0291 40.6221 56.9676 40.6212C56.908 40.6212 56.8503 40.6417 56.8456 40.7088C56.8428 40.7739 56.8428 41.1399 56.8428 41.1399C56.718 41.0561 56.4359 40.8782 56.2952 40.8624C56.15 40.8419 55.8324 41.2023 55.9805 41.2293C57.5617 41.532 58.3179 43.2315 58.6261 43.8721C58.7863 44.2009 58.8766 44.5566 58.9595 44.8974C59.4158 44.849 59.7445 44.7773 60.0621 44.5622C60.3759 44.3452 60.9393 44.2251 61.2392 44.2251C61.5325 44.2251 61.6005 44.105 61.6563 44.0053ZM50.408 20.3986C50.408 20.5224 50.8978 20.6267 51.5003 20.6267C52.1047 20.6267 52.5936 20.5224 52.5936 20.3986C52.5936 20.2729 52.1047 20.1704 51.5003 20.1704C50.8978 20.1704 50.408 20.2729 50.408 20.3986ZM52.5489 43.1765C52.2602 42.9186 51.6056 42.0097 51.5022 41.7229H51.4966C51.396 42.0097 50.7386 42.9186 50.448 43.1756C50.1612 43.4363 49.46 44.1226 49.0866 44.4625C49.0866 44.4625 50.1528 44.2046 50.7516 43.6729C50.7516 43.6729 51.18 43.915 51.4919 43.915H51.5068C51.8179 43.915 52.2453 43.6729 52.2453 43.6729C52.846 44.2046 53.9141 44.4625 53.9141 44.4625C53.5388 44.1226 52.8385 43.4363 52.5489 43.1765ZM51.5059 44.1282H51.4929C51.2554 44.1282 51.0329 44.0379 50.9081 43.983C51.0329 44.2437 51.2694 44.6479 51.4966 44.8127H51.5003C51.7275 44.6479 51.965 44.2446 52.0917 43.983C51.965 44.0379 51.7415 44.1282 51.5059 44.1282ZM44.3736 43.8703C44.6828 43.2305 45.4399 41.5301 47.0183 41.2274C47.1673 41.1995 46.847 40.8401 46.7073 40.8605C46.5648 40.8764 46.2826 41.0542 46.1597 41.1381C46.1597 41.1381 46.1597 40.7721 46.1551 40.7069C46.1513 40.6398 46.0917 40.6194 46.0303 40.6194C45.9697 40.6203 45.5879 40.6194 45.4659 40.7534C45.1074 41.1613 44.4993 42.2565 44.1557 43.0722C43.8111 43.8861 43.5774 44.1385 43.2133 44.0128C42.8501 43.8861 42.6322 43.4782 42.0008 43.603C41.7811 43.6468 41.5371 43.7893 41.3462 44.0035C41.3993 44.1012 41.4672 44.2232 41.7643 44.2232C42.0586 44.2232 42.6229 44.3433 42.9376 44.5603C43.2543 44.7754 43.5867 44.8471 44.0393 44.8956C44.1231 44.5547 44.2153 44.199 44.3736 43.8703ZM47.4029 21.7517C47.7931 21.7517 48.106 21.6976 48.106 21.6297C48.106 21.558 47.7931 21.5049 47.4029 21.5049C47.0146 21.5049 46.7008 21.558 46.7008 21.6297C46.7008 21.6976 47.0146 21.7517 47.4029 21.7517ZM48.3565 22.3253V22.37C48.3565 22.37 47.4578 22.3747 47.4225 22.8105C47.2772 22.7173 47.1924 22.5665 47.1589 22.3663C47.1589 22.3663 47.808 22.3942 48.3565 22.3253ZM47.6534 23.3822C47.6376 23.2649 47.6413 23.06 47.6413 23.06C47.9672 23.358 48.6377 23.5685 48.6377 23.5685C48.6294 23.4565 48.6056 23.3462 48.5669 23.2407C48.8528 23.4065 49.0139 23.3888 49.0139 23.3888C48.9832 23.182 48.8389 22.938 48.8389 22.938C49.0372 23.182 49.2924 23.1969 49.2924 23.1969C49.3287 23.0749 49.2533 22.7704 49.2533 22.7704C49.351 22.8933 49.5373 23.2109 50.1174 23.3338C50.6985 23.4558 50.9602 23.1383 50.9602 23.1383C50.3922 23.1755 49.8614 22.6382 49.8614 22.6382C50.1575 22.5274 50.2571 22.3169 50.2571 22.3169C50.0876 22.1707 49.9126 22.1707 49.9126 22.1707C50.2441 22.0245 50.3111 21.7684 50.3111 21.7684C49.8986 21.9668 48.6163 21.9798 47.9235 22.0143C47.2278 22.0469 46.5331 21.7945 46.5331 21.7945C46.6123 23.2798 47.6534 23.3822 47.6534 23.3822ZM41.484 32.6927C41.7805 32.6632 42.0681 32.5753 42.3304 32.434C42.5927 32.2927 42.8244 32.1008 43.0121 31.8695C43.0261 31.8034 43.0568 31.6786 43.0866 31.5948C42.8212 31.6618 42.472 31.6879 42.0474 31.5892L41.9319 31.5613L41.8965 31.4532C41.3806 31.8639 40.7697 31.9319 40.5584 32.3053C40.5584 32.3053 40.8154 32.7672 41.484 32.6927ZM47.7335 20.3017C47.7335 20.1434 47.537 20.0959 47.4355 20.0959H47.3787C47.2781 20.0959 47.0779 20.1425 47.0779 20.3027C47.0779 20.4638 47.3359 20.8521 47.4038 21.0234H47.4094C47.4802 20.8521 47.7335 20.4628 47.7335 20.3017ZM46.8712 33.2626L46.7222 33.2384C46.7073 33.2338 46.5331 33.203 46.3162 33.0969C46.5154 33.3492 46.7054 33.5336 46.8563 34.2674C47.0779 35.3504 47.2772 35.3793 47.2772 35.3793C47.4271 34.9882 47.74 34.2805 48.1134 33.5876C48.4859 32.8957 48.1786 32.323 48.1786 32.323C47.9644 32.2168 47.8722 32.1526 47.754 32.0343L47.7167 31.9896C47.713 31.9989 47.7056 32.0036 47.7018 32.012C47.6292 32.0986 47.4457 32.269 47.1003 32.2615C47.1395 32.5618 47.0831 32.8668 46.9392 33.1332L46.8712 33.2626ZM41.6842 36.4893C42.2616 35.4883 42.6164 34.8578 42.8576 34.6343C42.703 34.6529 42.5465 34.6529 42.3957 34.6287L42.2709 34.6101C41.9142 35.2406 41.2111 36.2752 40.5779 36.6365C40.5779 36.6365 40.4159 35.7984 42.2783 34.0998C42.3035 34.0309 42.3407 33.9508 42.3938 33.8633C42.2234 33.9247 42.0288 33.9573 41.8118 33.9536L41.7876 33.9564C41.0733 34.6539 39.5675 36.2211 39.7081 37.9197C39.7081 37.9197 41.1087 37.4923 41.6833 36.4884L41.6842 36.4893ZM43.2403 32.9115C43.2291 32.8929 43.0475 32.6573 42.9991 32.2858C42.6899 32.3947 42.473 32.4534 42.0213 32.7514C41.3527 33.1872 41.6265 33.7385 41.6265 33.7385C42.6275 33.8707 43.1081 33.0661 43.2403 32.9115ZM50.9462 33.8707C51.0207 33.6351 51.342 33.1993 51.3495 32.4878C51.3504 32.2187 50.8606 31.782 50.7237 31.4355C50.2674 31.8332 50.205 32.6331 50.2581 32.9004C50.3614 33.4191 50.9472 33.8707 50.9472 33.8707H50.9462ZM41.1106 39.6686C41.6479 40.1463 42.1964 40.4098 42.486 40.1007C42.7942 39.7701 42.4609 39.2793 41.9254 38.8007C41.3937 38.322 40.8666 38.0333 40.5565 38.3658C40.2417 38.6973 40.5779 39.188 41.1106 39.6686ZM43.5541 37.3852C43.9499 36.7501 44.0495 35.4762 44.1343 34.2367C44.1269 34.1605 44.1232 34.0841 44.1231 34.0076C44.0933 34.0374 44.0589 34.0635 44.03 34.0896C43.9499 34.1506 43.8675 34.2087 43.7832 34.2637C43.7832 34.2637 43.6063 36.3217 43.0215 37.008C42.8352 36.2426 43.2869 35.2508 43.5234 34.4164C43.4411 34.4576 43.3569 34.4949 43.271 34.5282C42.5931 35.613 41.7876 37.1691 42.4543 38.3313C42.4543 38.3313 43.1686 38.0082 43.5541 37.3852ZM47.7065 39.4153C47.7065 39.4153 48.1647 39.5307 48.4561 39.4013C48.4561 39.4013 48.5614 38.9729 48.8882 38.7811C48.9609 38.7401 49.189 38.6731 49.4004 38.5688C49.3203 38.5064 49.2486 38.4663 49.1527 38.3555C49.1527 38.3555 48.7821 38.4896 48.4757 38.6917C48.1684 38.8928 47.8685 39.2383 47.7065 39.4153ZM50.0048 26.3156C50.137 25.8761 49.8539 25.4514 49.7487 25.213C49.5103 25.4012 49.3157 25.6023 49.2831 26.1238C49.2533 26.6453 49.3948 27.3232 49.3948 27.3232C49.5764 26.947 49.8735 26.757 50.0048 26.3156ZM51.5031 24.605H51.4966C51.3849 24.6543 50.9267 24.8918 50.8932 25.2289C50.8606 25.5669 51.4743 26.1899 51.4929 26.4488H51.5059C51.5255 26.1899 52.1382 25.5669 52.1066 25.2289C52.0758 24.8918 51.6167 24.6543 51.5031 24.605ZM49.365 23.3385C49.4879 23.7696 49.7003 24.1766 49.9089 24.4932C50.097 24.7856 50.2162 25.255 50.1994 25.4151C50.1994 25.4151 50.4797 24.808 50.3382 24.3787C50.2245 24.0471 49.9219 23.548 49.365 23.3385ZM54.3099 33.2337C54.1823 33.5094 53.875 33.7804 53.8061 34.0206C53.7222 34.3037 53.6971 34.4825 53.8359 34.8122C53.9625 35.0999 54.1096 35.2694 54.1618 35.4454C54.1618 35.4454 54.5622 34.936 54.6274 34.7237C54.6982 34.5142 54.7159 34.1659 54.6367 33.9461C54.5529 33.7236 54.4067 33.4368 54.3099 33.2337ZM51.9296 26.3519C51.8551 26.6639 51.925 26.8725 52.0693 27.0634C52.2127 27.2515 52.4567 27.4573 52.6858 27.855C52.6858 27.855 52.9465 27.516 52.9791 27.3391C53.0108 27.1612 52.9596 26.7384 52.9018 26.5633C52.846 26.3827 52.6197 25.8118 52.4325 25.2298C52.4325 25.2298 52.006 26.0353 51.9296 26.3519ZM55.2727 31.7317C55.1443 31.6238 55.023 31.5078 54.9096 31.3843C54.9096 31.3843 54.5725 31.9831 54.5175 32.1582C54.5175 32.1582 54.6833 32.2019 54.8677 32.0697C55.0511 31.9393 55.0912 31.904 55.2737 31.7317H55.2727ZM54.213 29.6299C54.0733 29.8981 53.8256 30.2929 53.8256 30.2929C53.8433 30.454 53.8312 30.7306 53.8834 31.0668C53.9374 31.402 54.3862 31.9738 54.3862 31.9738C54.497 31.673 54.7606 31.2614 54.8155 30.8572C54.8472 30.5853 54.7876 30.1774 54.7876 30.1774C54.606 30.0936 54.376 29.8273 54.213 29.6299ZM53.1859 27.4797C53.0622 27.6581 52.9839 27.8639 52.9577 28.0794C52.9419 28.3196 52.981 28.5143 53.116 28.8663C53.2874 29.3123 53.549 29.8096 53.6701 30.034C53.6701 30.034 53.9029 29.7081 54.0333 29.4157C54.0333 29.4157 53.6701 28.9268 53.5127 28.5813C53.3321 28.1753 53.2585 27.8009 53.1859 27.4797ZM52.6662 24.3787C52.5219 24.807 52.8059 25.4151 52.8059 25.4151C52.7836 25.255 52.9028 24.7856 53.0918 24.4932C53.3004 24.1766 53.5109 23.7696 53.6375 23.3385C53.0788 23.548 52.7761 24.0462 52.6662 24.3787ZM53.7185 26.1238C53.685 25.6023 53.4922 25.4012 53.252 25.213C53.1495 25.4514 52.8646 25.8761 52.995 26.3156C53.1291 26.758 53.4252 26.947 53.6049 27.3232C53.6049 27.3232 53.7493 26.6453 53.7176 26.1238H53.7185ZM50.0988 26.5633C50.0411 26.7384 49.9927 27.1612 50.0225 27.3391C50.0532 27.516 50.3167 27.855 50.3167 27.855C50.543 27.4573 50.7889 27.2515 50.9295 27.0634C51.0757 26.8725 51.1446 26.6639 51.0701 26.351C50.9937 26.0344 50.5682 25.2298 50.5682 25.2298C50.3791 25.8118 50.1538 26.3827 50.0988 26.5633ZM51.5003 41.2749C51.5469 41.3625 51.6093 41.4444 51.6903 41.5189C52.1336 41.9333 52.4167 41.8942 52.6625 41.8067C52.6625 41.8067 51.9315 41.5664 51.9706 40.9304C52.0134 40.2981 52.3822 39.9172 52.4455 39.5885C52.5182 39.2253 52.494 38.8789 52.2062 38.4608C51.9706 39.2402 51.7173 39.811 51.5152 40.2003C51.5087 40.2105 51.5059 40.2226 51.5003 40.2348C51.4957 40.2226 51.4919 40.2105 51.4845 40.2003C51.2012 39.6431 50.9705 39.0608 50.7954 38.4608C50.5086 38.8789 50.4825 39.2253 50.5542 39.5875C50.6194 39.9172 50.9872 40.2981 51.0291 40.9304C51.0692 41.5664 50.3391 41.8067 50.3391 41.8067C50.584 41.8942 50.8652 41.9333 51.3113 41.5189C51.3878 41.449 51.4517 41.3665 51.5003 41.2749ZM50.7581 42.1903L50.8978 41.9631C50.6846 42.0562 50.4136 41.9911 50.4136 41.9911C50.3889 42.0232 50.367 42.0575 50.3484 42.0935C49.622 43.1402 48.8184 43.7986 47.9998 44.2297L48.2326 44.5557C49.1192 44.0845 49.9806 43.3525 50.7581 42.1903ZM55.2932 39.4153C55.1284 39.2374 54.8304 38.8928 54.5259 38.6917C54.2195 38.4896 53.8461 38.3565 53.8461 38.3565C53.7493 38.4663 53.6813 38.5064 53.6003 38.5678C53.8116 38.6731 54.0398 38.7401 54.1096 38.782C54.4374 38.9729 54.5427 39.4013 54.5427 39.4013C54.8341 39.5317 55.2942 39.4143 55.2942 39.4143L55.2932 39.4153ZM53.8591 38.8938C53.3796 38.7513 52.6392 38.186 52.3394 37.6534C52.3394 37.781 52.4353 38.498 52.6457 38.8565C52.9391 39.3566 53.3684 39.7263 53.7455 39.7263C54.0957 39.7263 54.1711 39.5214 54.3415 39.4413C54.3415 39.4413 54.253 39.0065 53.8601 38.8928L53.8591 38.8938ZM47.6897 41.2191C47.7922 41.2703 48.2708 41.4612 48.5809 40.8354C48.5809 40.8354 48.051 41.0058 47.9076 40.7581C47.7652 40.5076 47.9989 40.1463 48.1423 40.0411C48.3295 39.9032 48.6703 39.812 48.8733 39.8455C48.8733 39.8455 48.7094 39.6928 48.5129 39.5931C48.4174 39.6398 48.312 39.6628 48.2056 39.6602C48.2056 39.6602 47.5221 40.123 47.442 40.5868C47.3759 40.9816 47.5873 41.1706 47.6897 41.22V41.2191ZM48.9674 29.4157C49.0959 29.7081 49.3296 30.034 49.3296 30.034C49.4507 29.8096 49.7161 29.3123 49.8846 28.8663C50.0197 28.5143 50.0606 28.3196 50.042 28.0794C50.0164 27.8638 49.938 27.6578 49.8139 27.4797C49.7422 27.8009 49.6677 28.1753 49.4879 28.5813C49.3315 28.9259 48.9674 29.4157 48.9674 29.4157ZM47.7279 31.7317C47.9086 31.904 47.9514 31.9393 48.1339 32.0697C48.3174 32.2019 48.4859 32.1582 48.4859 32.1582C48.4282 31.9831 48.0948 31.3843 48.0948 31.3843C48.011 31.4802 47.8089 31.6618 47.7279 31.7317ZM48.214 30.1774C48.214 30.1774 48.1525 30.5853 48.1861 30.8572C48.2401 31.2614 48.5027 31.673 48.6172 31.9729C48.6172 31.9729 49.0642 31.402 49.1164 31.0668C49.1667 30.7315 49.1601 30.454 49.1769 30.2939C49.1769 30.2939 48.9273 29.8981 48.7904 29.6299C48.6265 29.8273 48.3947 30.0936 48.214 30.1774ZM47.3107 38.8277C47.3107 38.8277 47.7987 38.7224 48.174 38.5995C48.5837 38.4663 48.8677 38.2885 49.0214 38.2019C48.9478 38.0929 48.8025 37.8946 48.8342 37.5817C48.8342 37.5817 48.1879 37.9821 47.9998 38.132C47.8043 38.2885 47.4001 38.6945 47.3107 38.8277ZM48.8398 35.4445C48.8892 35.2694 49.0391 35.0999 49.1639 34.8122C49.3036 34.4825 49.2765 34.3037 49.1955 34.0206C49.1257 33.7804 48.8193 33.5094 48.6927 33.2337C48.593 33.4368 48.4459 33.7236 48.3658 33.9461C48.282 34.1659 48.3053 34.5142 48.3714 34.7237C48.4384 34.936 48.8398 35.4445 48.8398 35.4445ZM47.3591 40.2031C47.4225 40.0904 47.6869 39.7058 47.9328 39.6537C47.9328 39.6537 47.7242 39.635 47.6041 39.5978C47.6041 39.5978 47.3526 39.6611 47.1738 39.7328C46.995 39.8036 46.7725 39.9125 46.5089 40.0802C46.5648 40.0979 46.8684 40.1873 47.1645 40.3698C47.1645 40.3698 47.2949 40.3214 47.3601 40.2022L47.3591 40.2031ZM52.2155 27.8009C52.0945 28.058 52.0684 28.3345 52.1075 28.4984C52.1475 28.6605 52.3608 28.8989 52.3831 29.1689C52.4167 29.5889 52.0814 30.1011 52.0814 30.1011C52.3915 29.9493 52.7445 29.5945 52.899 29.3701C53.0527 29.1466 52.9391 28.8216 52.8711 28.653C52.8059 28.4835 52.3086 27.9006 52.2155 27.8009ZM49.365 30.6561C49.2533 31.172 49.8092 31.4793 50.069 31.9412C50.137 31.755 50.353 31.2512 50.6008 31.077C50.6008 31.077 50.9183 30.1616 49.8958 29.5973C49.8958 29.5973 49.4758 30.1421 49.365 30.6561ZM50.1305 28.654C50.0634 28.8216 49.9489 29.1456 50.1025 29.3701C50.2571 29.5936 50.6119 29.9493 50.9183 30.1011C50.9183 30.1011 50.5831 29.5889 50.6203 29.168C50.6389 28.8998 50.8531 28.6605 50.8932 28.4975C50.9341 28.3345 50.9081 28.058 50.7861 27.8009C50.6929 27.9006 50.1966 28.4845 50.1305 28.654ZM48.6023 32.3556C48.6023 32.3556 48.6424 32.621 48.8445 33.0047C49.0447 33.3865 49.3231 33.6537 49.4721 33.7897C49.4721 33.7897 49.8073 33.2216 49.9061 32.9711C50.0169 32.6843 50.0048 32.4031 49.9582 32.2969C49.8427 32.0483 49.4516 31.6907 49.2765 31.3787C49.2374 31.5305 48.6955 32.2643 48.6023 32.3556ZM52.7417 32.9004C52.7975 32.6331 52.7342 31.8332 52.2788 31.4355C52.141 31.782 51.6484 32.2187 51.6521 32.4878C51.6614 33.1993 51.9781 33.6351 52.0544 33.8707C52.0544 33.8707 52.6392 33.4191 52.7417 32.9004ZM53.1039 29.5973C52.0805 30.1616 52.399 31.077 52.399 31.077C52.6485 31.2512 52.8627 31.755 52.9298 31.9403C53.1905 31.4793 53.7493 31.172 53.6375 30.6561C53.5239 30.1421 53.1039 29.5973 53.1039 29.5973ZM54.1543 33.0056C54.2664 32.8018 54.3483 32.5829 54.3974 32.3556C54.3043 32.2653 53.7642 31.5305 53.7232 31.3787C53.549 31.6907 53.1561 32.0492 53.0452 32.2969C52.995 32.4022 52.981 32.6843 53.0946 32.9711C53.1942 33.2226 53.5276 33.7897 53.5276 33.7897C53.6775 33.6537 53.956 33.3855 54.1543 33.0047V33.0056ZM48.8482 36.2519C48.9106 36.5024 49.1834 37.0499 49.1834 37.0499C49.2989 36.859 49.6397 36.413 49.7254 36.0945C49.8111 35.7788 49.5047 35.2452 49.3948 35.0888C48.8445 35.5916 48.7886 36.0023 48.8482 36.2519ZM55.6899 38.8277C55.5996 38.6945 55.1964 38.2875 55.0018 38.132C54.809 37.983 54.1637 37.5826 54.1637 37.5826C54.1972 37.8946 54.0519 38.0929 53.9793 38.2019C54.1329 38.2885 54.416 38.4663 54.8267 38.5995C55.2001 38.7224 55.6899 38.8277 55.6899 38.8277ZM49.6006 33.9815C49.4778 34.2331 49.4539 34.5215 49.5336 34.7898C49.6416 35.1158 50.1361 35.5711 50.1361 35.5711C50.2804 35.3253 50.4955 35.0003 50.5635 34.8373C50.6315 34.6697 50.6706 34.4723 50.6259 34.232C50.57 33.9247 50.2087 33.5373 50.0895 33.3027C49.9768 33.528 49.7179 33.7627 49.6006 33.9815ZM53.0089 36.4167C53.0257 35.9846 52.3356 35.1698 52.3356 35.1698C51.9706 35.5134 51.8803 35.7304 51.8421 36.0749C51.7974 36.4167 51.9166 36.6756 52.0721 36.9754C52.209 37.2455 52.5722 37.6441 52.5722 37.6441C52.6206 37.3144 52.9894 36.955 53.0099 36.4167H53.0089ZM52.8646 35.5711C52.8646 35.5711 53.3581 35.1158 53.4662 34.7889C53.55 34.5449 53.5174 34.1966 53.3982 33.9815C53.2808 33.7636 53.0238 33.528 52.9102 33.3017C52.7929 33.5373 52.4325 33.9257 52.3748 34.233C52.3365 34.4364 52.3575 34.6465 52.4353 34.8383C52.5033 35.0003 52.7221 35.3253 52.8646 35.5711ZM53.4811 38.403C53.4811 38.403 53.7837 38.1944 53.9038 37.9234C54.0174 37.6673 53.9532 37.4848 53.8349 37.3554C53.7185 37.2222 53.4438 36.9149 53.3255 36.7156C53.2492 36.9522 53.0229 37.3917 52.9922 37.5249C52.9391 37.7763 53.0108 38.0799 53.4811 38.403ZM52.0758 37.7903C52.0889 37.3815 51.7182 36.7454 51.505 36.5014H51.4938C51.2843 36.7454 50.9118 37.3815 50.9248 37.7903C50.95 38.6051 51.4743 39.3734 51.5013 39.622C51.5264 39.3743 52.0507 38.6051 52.0758 37.7903ZM49.5187 38.403C49.9871 38.0799 50.0616 37.7763 50.0066 37.5249C49.9768 37.3917 49.7496 36.9522 49.6742 36.7147C49.5578 36.9149 49.2821 37.2222 49.1648 37.3545C49.0475 37.4848 48.9832 37.6673 49.095 37.9234C49.216 38.1944 49.5187 38.403 49.5187 38.403ZM53.6058 35.0897C53.4941 35.2461 53.1896 35.7788 53.2753 36.0945C53.3656 36.413 53.7036 36.859 53.8172 37.0499C53.8172 37.0499 54.0892 36.5024 54.1515 36.2519C54.213 36.0023 54.1553 35.5907 53.6058 35.0897ZM55.811 39.5875C56.2599 39.7533 56.6677 40.0243 56.6677 40.0243C56.921 39.9461 57.4034 39.8148 57.4034 39.8148C57.0914 39.4805 56.8531 39.3175 56.5262 39.2216C56.1965 39.1275 55.419 39.0055 55.0716 38.8826C55.3789 39.1797 55.5223 39.4767 55.811 39.5875ZM51.1642 36.0749C51.1204 35.7304 51.0291 35.5134 50.6678 35.1698C50.6678 35.1698 49.9768 35.9846 49.9927 36.4167C50.0131 36.954 50.3791 37.3144 50.4303 37.6441C50.4303 37.6441 50.7907 37.2455 50.9295 36.9754C51.0841 36.6756 51.2014 36.4167 51.1642 36.0749ZM51.5003 32.1526C51.5683 31.8481 52.2202 31.2614 52.1587 30.9401C52.0693 30.4615 51.7546 30.563 51.505 30.3609H51.5003C51.2489 30.563 50.9295 30.4615 50.8392 30.9401C50.7814 31.2614 51.4296 31.8481 51.4966 32.1526H51.5003ZM51.4947 35.7267H51.5041C51.5562 35.5274 51.8691 35.2862 51.9976 34.936C52.0749 34.7312 52.0721 34.489 51.9883 34.3242C51.8905 34.1315 51.5394 33.6584 51.5003 33.5234C51.4566 33.6584 51.1101 34.1315 51.0096 34.3242C50.9258 34.489 50.9239 34.7302 51.0003 34.936C51.1306 35.2862 51.4426 35.5274 51.4947 35.7267Z" fill="white"/>
<path d="M81.833 7H133.833V59H81.833V7Z" fill="#CC003D"/>
<mask id="mask0_619_2793" style="mask-type:luminance" maskUnits="userSpaceOnUse" x="89" y="21" width="37" height="25">
<path d="M125.51 21.0828H89.4141V45.2613H125.51V21.0828Z" fill="white"/>
</mask>
<g mask="url(#mask0_619_2793)">
<path d="M119.53 37.6904C119.683 37.0515 119.884 35.1835 119.884 35.1835H118.09C118.079 35.3744 118.04 36.0123 117.984 36.6632C117.9 37.627 117.622 38.5145 116.653 38.5145H115.906C115.904 38.4335 115.906 35.1835 115.906 35.1835H114.081V45.2622H115.906V40.1451H117.006L118.797 45.2585H120.756L118.563 39.3535C119.018 39.009 119.372 38.3487 119.53 37.6904ZM98.8512 26.3973C98.8661 23.6716 99.5291 22.7748 100.228 22.759C100.927 22.7748 101.59 23.6716 101.605 26.3982V26.3992C101.59 29.0625 100.927 29.9723 100.228 29.9863C99.53 29.9723 98.8661 29.0625 98.8502 26.3992L98.8512 26.3973ZM100.187 31.6383L100.213 31.6392L100.228 31.6383L100.244 31.6392L100.269 31.6383C101.476 31.615 102.632 30.8858 103.133 28.8213C103.326 28.1201 103.424 27.2494 103.424 26.3507L103.421 26.0248C103.389 24.5851 103.146 23.5524 102.769 22.8176C102.174 21.5651 101.228 21.0958 100.25 21.0846L100.244 21.0828H100.213L100.206 21.0846C99.2283 21.0958 98.2822 21.5651 97.6881 22.8176C97.3109 23.5533 97.0679 24.5851 97.0362 26.0257L97.0315 26.3517C97.0325 27.2494 97.1312 28.1201 97.323 28.8213C97.824 30.8858 98.9806 31.615 100.187 31.6383ZM91.8595 43.7024C91.6825 43.7024 91.2365 43.6614 91.2365 43.6614V40.1134C91.2365 40.1134 91.3799 40.0799 91.5363 40.0799C92.4611 40.0799 93.5534 40.024 93.5534 41.8902C93.5534 43.599 92.353 43.7024 91.8595 43.7024ZM92.0802 38.481C91.7664 38.481 91.487 38.4884 91.2365 38.5015V36.8597H94.507V35.1835H89.4141V45.2594H92.1798C94.9381 45.2594 95.3646 42.7656 95.3646 41.8427C95.3646 40.7522 94.9409 38.481 92.0802 38.481ZM109.858 38.4037H107.356V35.1835H105.537V45.2622H107.356V40.079H109.858V45.2622H111.678V35.1835H109.858V38.4037ZM115.893 31.4185V23.0188H117.407V21.3435H112.534V23.0197H114.048V31.4185H115.893ZM108.691 26.5538V31.4185H110.515V21.3435H108.69V24.8524H107.699C107.289 24.8524 106.985 24.7593 106.791 24.5712C106.653 24.4408 106.586 24.2629 106.586 24.0329V21.3435H104.761V24.221C104.761 24.8831 105.018 25.4437 105.527 25.8898C106.03 26.3312 106.645 26.5538 107.358 26.5538H108.691ZM91.2365 23.0197H93.4947V31.4185H95.3199V21.3435H89.4141V31.4185H91.2365V23.0197ZM99.1659 38.6924C99.1697 38.4875 99.2078 37.0534 99.2106 36.8597L99.5328 36.8383C100.862 36.8383 101.105 37.0981 101.228 38.6914L99.1659 38.6924ZM99.9659 35.1835H97.4916L97.1554 45.2613H98.9583C98.9583 45.2613 99.124 40.5884 99.1343 40.3658L101.413 40.3676C101.433 40.5707 101.773 45.2613 101.773 45.2613H103.636C103.636 45.2613 102.995 38.3394 102.943 37.8952C102.735 36.1128 101.911 35.1835 99.9659 35.1835ZM121.042 24.8524C121.047 24.6475 121.084 23.2134 121.087 23.0197H121.431C122.758 23.0197 122.98 23.2572 123.104 24.8524H121.042ZM124.82 24.0562C124.611 22.2729 123.788 21.3435 121.842 21.3435H119.368L119.031 31.4204H120.835C120.835 31.4204 121.001 26.7474 121.011 26.5267H123.289C123.31 26.7307 123.65 31.4204 123.65 31.4204H125.511C125.511 31.4204 124.871 24.4995 124.82 24.0562Z" fill="white"/>
</g>
</svg>
