<svg width="160" height="65" viewBox="0 0 160 65" fill="none" xmlns="http://www.w3.org/2000/svg">
<path d="M89.1818 17L71.9053 19.257V24.3695L89.1818 22.8277V17Z" fill="#E40038"/>
<path d="M36.3965 35.6189C36.3965 38.7216 37.3222 39.7953 40.2928 39.7953C43.2633 39.7953 44.1736 38.7164 44.1736 35.6189C44.1736 32.5215 43.2773 31.4426 40.2928 31.4426C37.308 31.4426 36.3965 32.5006 36.3965 35.6189ZM31.1768 35.5737C31.1768 29.8887 34.3358 27.2871 40.2928 27.2871C46.2497 27.2871 49.4228 29.8887 49.4228 35.5737C49.4228 41.2587 46.2846 43.9507 40.2928 43.9507C34.301 43.9507 31.1768 41.2587 31.1768 35.5737Z" fill="#00234D"/>
<path d="M85.9139 28.7163L71.9079 19.2621V24.3625L76.2747 27.3207L77.1343 27.8219C75.5654 27.841 74.8139 28.1594 74.0592 28.6154C71.9025 29.9152 70.7832 32.2018 70.7832 35.5759C70.7832 41.2609 73.9214 43.9529 79.8992 43.9529C85.8774 43.9529 89.0311 41.2609 89.0311 35.5759C89.0311 32.2853 87.964 30.0353 85.9139 28.7163ZM79.8992 39.7957C76.9356 39.7957 76.0029 38.7169 76.0029 35.6194C76.0029 32.522 76.9287 31.4431 79.8992 31.4431C82.8701 31.4431 83.78 32.5011 83.78 35.6194C83.78 38.7377 82.8856 39.7957 79.8992 39.7957Z" fill="#00234D"/>
<path d="M22.1869 27.2672C19.3658 27.2672 17.0736 29.0073 16.5052 29.7277V27.6396H11.5V48.9998H16.4739V41.4023C17.0578 42.1384 19.3345 43.8472 22.171 43.8472C26.8781 43.8472 29.4704 41.2927 29.4704 35.545C29.4704 29.7974 26.8816 27.2672 22.1869 27.2672ZM20.405 39.7092C17.4414 39.7092 16.5087 38.632 16.5087 35.5329C16.5087 32.4337 17.4345 31.3565 20.405 31.3565C23.3756 31.3565 24.2839 32.418 24.2839 35.5329C24.2839 38.6477 23.3895 39.7022 20.405 39.7022V39.7092Z" fill="#00234D"/>
<path d="M123.252 27.6465V33.4464H116.649V27.6465H111.644V43.3426H116.649V37.4626H123.252V43.3426H128.259V27.6465H123.252Z" fill="#00234D"/>
<path d="M90.752 35.545C90.752 41.2875 93.341 43.8472 98.0516 43.8472C100.886 43.8472 103.163 42.1384 103.747 41.4023V43.3443H108.723V27.6291H103.717V29.7173C103.146 29.0073 100.853 27.2672 98.0342 27.2672C93.3391 27.2672 90.752 29.813 90.752 35.545ZM95.9368 35.5224C95.9368 32.4041 96.8312 31.3461 99.8176 31.3461C102.804 31.3461 103.712 32.4076 103.712 35.5224C103.712 38.6372 102.787 39.6987 99.8176 39.6987C96.8486 39.6987 95.9349 38.6251 95.9349 35.5224H95.9368Z" fill="#00234D"/>
<path d="M63.9451 37.5426C63.5545 39.1836 62.5086 39.7961 60.2421 39.7961C57.2785 39.7961 56.3473 38.7172 56.3473 35.6198C56.3473 32.5223 57.2785 31.4434 60.2421 31.4434C62.5086 31.4434 63.5545 32.0542 63.9467 33.7056L69.1664 33.3106C68.387 29.2039 65.3309 27.295 60.2421 27.295C54.2851 27.295 51.1279 29.8965 51.1279 35.5815C51.1279 41.2665 54.2658 43.9585 60.2421 43.9585C65.3274 43.9585 68.3522 42.0096 69.1506 37.9429L63.9451 37.5426Z" fill="#00234D"/>
<path d="M149.447 43.3408L141.525 35.0995L149.021 27.6465H142.829L136.112 34.4644V27.6465H131.195V43.3408H136.112V37.8524V36.4934V36.114L143.012 43.3408H149.447Z" fill="#00234D"/>
</svg>
