<svg width="160" height="65" viewBox="0 0 160 65" fill="none" xmlns="http://www.w3.org/2000/svg">
<path d="M32.1432 58.0174L18.8104 45.5374L10.1181 53.8574C9.22366 54.9983 9.45454 56.6249 10.6339 57.4901C11.0998 57.8333 11.6687 58.0174 12.2532 58.0174H32.1432Z" fill="#FF4F12"/>
<path fill-rule="evenodd" clip-rule="evenodd" d="M40.74 24.7378L21.396 6.01782L10.5956 16.9056C9.25878 18.2428 8.5054 20.0546 8.5 21.9454V53.8568C8.5 56.1552 10.424 58.0168 12.7983 58.0168C11.3278 58.0168 10.1359 56.8624 10.1359 55.4397C10.1359 54.7543 10.4167 54.0981 10.919 53.6134" fill="#7800FF"/>
<path fill-rule="evenodd" clip-rule="evenodd" d="M126.092 39.4863H122.99L119.284 43.1845V39.4863H116.66V49.6762H119.284V45.4642L123.052 49.6762H126.217L121.344 44.2121L126.092 39.4863Z" fill="#101828"/>
<path fill-rule="evenodd" clip-rule="evenodd" d="M42.85 42.2385H39.0602V37.7197H42.85C44.7646 37.7197 45.6393 38.6234 45.6393 39.9786C45.6393 41.3347 44.7657 42.2385 42.85 42.2385ZM42.9332 35.2954H36.3115V49.6755H39.0592V44.6627H42.9322C46.2217 44.6627 48.387 42.9987 48.387 39.9786C48.387 36.9594 46.2227 35.2954 42.9332 35.2954Z" fill="#101828"/>
<path fill-rule="evenodd" clip-rule="evenodd" d="M54.5893 47.5398C53.049 47.5398 51.6128 46.4509 51.6128 44.581C51.6128 42.7121 53.049 41.6232 54.5893 41.6232C56.1305 41.6232 57.5668 42.7121 57.5668 44.581C57.5668 46.4509 56.1305 47.5398 54.5893 47.5398ZM54.5893 39.199C51.7584 39.199 48.9473 41.0065 48.9473 44.581C48.9473 48.1565 51.7584 49.964 54.5893 49.964C57.4212 49.964 60.2313 48.1565 60.2313 44.581C60.2313 41.0065 57.4212 39.199 54.5893 39.199ZM66.9289 47.5398C65.347 47.5398 64.1812 46.4093 64.1812 44.581C64.1812 42.7735 65.3876 41.6232 66.9289 41.6232C67.8649 41.6232 68.6781 42.0548 69.3229 43.0199L71.5714 41.7459C70.8226 40.1651 69.1981 39.1979 66.9497 39.1979C64.0137 39.1979 61.5157 41.3351 61.5157 44.581C61.5157 47.8268 63.8889 49.964 66.9497 49.964C69.1565 49.964 70.6344 48.9781 71.6754 47.2319L69.5101 46.0609C68.8861 46.9241 68.2195 47.5398 66.9289 47.5398ZM94.8591 45.2601C94.7343 46.8201 94.4223 47.1695 93.8815 47.1695C93.5113 47.1695 93.3376 47.13 93.0838 47.0635L93.0973 49.7009C93.0973 49.7009 93.4229 49.7997 94.0271 49.7997C96.2548 49.7997 97.0868 48.3822 97.2958 45.362L97.5454 41.8083H100.501V49.6562H103.125V39.4871H95.2969L94.8601 45.2591L94.8591 45.2601ZM84.5454 43.2259C84.9198 42.0746 85.9619 41.1708 87.3357 41.1708C88.7928 41.1708 89.7714 41.9508 90.021 43.2259H84.5454ZM87.4189 39.199C84.4217 39.199 81.9849 41.3559 81.9849 44.581C81.9849 47.8071 84.4217 49.964 87.2941 49.964C89.5634 49.964 90.9997 49.1216 92.0407 47.3744L89.9586 46.3479C89.3138 47.1487 88.7314 47.7447 87.3357 47.7447C85.7955 47.7447 84.6713 46.7587 84.5049 45.1977H92.4577V44.2929C92.4577 41.3143 90.3757 39.199 87.4189 39.199ZM107.154 43.2259C107.528 42.0746 108.569 41.1708 109.944 41.1708C111.4 41.1708 112.38 41.9508 112.63 43.2259H107.154ZM110.028 39.199C107.029 39.199 104.594 41.3559 104.594 44.581C104.594 47.8071 107.029 49.964 109.902 49.964C112.171 49.964 113.608 49.1216 114.649 47.3744L112.567 46.3479C111.922 47.1487 111.339 47.7447 109.944 47.7447C108.403 47.7447 107.279 46.7587 107.112 45.1977H115.065V44.2929C115.065 41.3143 112.983 39.199 110.028 39.199ZM72.4918 41.7459H75.5733V49.6759H78.1962V41.7459H81.2777V39.486H72.4918V41.7459ZM131.425 47.5398C129.884 47.5398 128.448 46.4509 128.448 44.581C128.448 42.7121 129.884 41.6232 131.425 41.6232C132.966 41.6232 134.402 42.7121 134.402 44.581C134.402 46.4509 132.966 47.5398 131.425 47.5398ZM131.425 39.199C128.594 39.199 125.782 41.0065 125.782 44.581C125.782 48.1555 128.594 49.964 131.425 49.964C134.256 49.964 137.068 48.1555 137.068 44.581C137.068 41.0065 134.256 39.199 131.425 39.199ZM147.505 39.485L144.657 46.6204L141.811 39.485H138.382V49.6562H140.876V43.2165L143.639 49.6562H145.677L148.44 43.2165V49.6562H150.934V39.485H147.505Z" fill="#101828"/>
</svg>
