<svg width="160" height="65" viewBox="0 0 160 65" fill="none" xmlns="http://www.w3.org/2000/svg">
<path d="M68.6384 27.9556C66.6681 27.9556 65.1943 28.6847 64.4653 29.8907H64.3077V28.3261H60.7061V44.8983H64.3077V39.6448H64.4653C65.1904 40.8508 66.6681 41.58 68.6384 41.58C72.3346 41.58 75.2663 38.5611 75.2663 34.7658C75.2663 30.9745 72.3346 27.9556 68.6384 27.9556ZM67.9094 38.301C65.8997 38.301 64.3077 36.7363 64.3077 34.7658C64.3077 32.7756 65.8997 31.2307 67.9094 31.2307C69.9782 31.2307 71.5504 32.7756 71.5504 34.7658C71.5504 36.7561 69.9584 38.301 67.9094 38.301Z" fill="#3B175C"/>
<path d="M149.195 28.9295C147.135 28.9295 145.522 29.7098 144.541 31.0656H144.38C144.647 28.6142 146.035 27.424 149.022 26.9983L154.251 26.2417V22.9272L148.675 23.7194C143.525 24.4366 141.054 27.1638 141.054 32.0785C141.054 35.6332 141.282 36.7565 141.917 38.1003C142.914 40.2561 145.385 41.5803 148.371 41.5803C152.395 41.5803 155.5 38.727 155.5 34.9908C155.496 31.3966 152.931 28.9295 149.195 28.9295ZM148.332 38.2856C146.284 38.2856 144.77 36.8865 144.77 34.9908C144.77 33.0755 146.264 31.6765 148.332 31.6765C150.361 31.6765 151.859 33.0755 151.859 34.9908C151.859 36.8865 150.342 38.2856 148.332 38.2856Z" fill="#3B175C"/>
<path d="M56.9303 24.4341L52.8754 32.6079L47.3508 24.4341H43.0439L51.0628 36.2653L50.8422 36.7145C50.4954 37.4318 50.0383 37.818 48.9823 37.818H46.1451V41.2232H49.3842C51.8549 41.2232 52.8518 40.5965 53.8843 38.5353L60.9733 24.4302H56.9303V24.4341Z" fill="#3B175C"/>
<path d="M96.0731 28.3418L95.4584 36.3502C95.3638 37.6034 94.9421 38.0605 93.9452 38.0605H93.0625V41.3198H95.2101C97.6256 41.3198 98.6975 40.2163 98.8709 37.9147L99.3438 31.6918H103.773V41.2094H107.414V28.3418H96.0731Z" fill="#3B175C"/>
<path d="M116.799 31.2688C118.273 31.2688 119.443 32.0964 119.999 33.2039L123.218 31.99C122.32 29.5425 119.77 27.9583 116.724 27.9583C112.642 27.9583 109.561 30.9023 109.561 34.7724C109.561 38.6387 112.646 41.5865 116.724 41.5865C119.77 41.5865 122.32 40.0022 123.218 37.5548L119.999 36.3409C119.443 37.4444 118.273 38.276 116.799 38.276C114.75 38.276 113.273 36.8218 113.273 34.7763C113.273 32.723 114.75 31.2688 116.799 31.2688Z" fill="#3B175C"/>
<path d="M134.592 28.3223L129 36.504V28.3223H125.398V41.2096H129.382L134.938 33.087V41.2096H138.54V28.3223H134.592Z" fill="#3B175C"/>
<path d="M87.6372 29.8863H87.4797C86.7546 28.6803 85.277 27.9512 83.3066 27.9512C79.6105 27.9512 76.6787 30.97 76.6787 34.7653C76.6787 38.5567 79.6105 41.5794 83.3066 41.5794C85.277 41.5794 86.7507 40.8504 87.4797 39.6444H87.6372V41.209H91.239V28.3217H87.6372V29.8863ZM84.0396 38.3004C81.9905 38.3004 80.3986 36.7555 80.3986 34.7653C80.3986 32.775 81.9708 31.2302 84.0396 31.2302C86.0492 31.2302 87.6412 32.775 87.6412 34.7653C87.6373 36.7359 86.0492 38.3004 84.0396 38.3004Z" fill="#3B175C"/>
<path d="M32.8926 33.2046C32.8926 28.5383 30.3509 24.4356 26.5326 22.0986L26.5838 25.2672C28.8536 27.2181 30.2918 30.0556 30.2918 33.2046C30.2918 34.6431 29.9844 36.0146 29.4446 37.2678C27.8014 35.7071 26.6311 33.8706 25.9021 31.703C25.0233 29.0782 24.8184 26.2052 24.7869 22.6937L24.7908 21.1842C24.0027 20.8453 23.1792 20.5773 22.3359 20.3882L22.3398 22.6897C22.4226 34.8125 24.5229 39.8098 27.6477 43.5656C30.8434 41.1537 32.8926 37.4097 32.8926 33.2046C32.8926 33.2085 32.8926 33.2085 32.8926 33.2046Z" fill="#3B175C"/>
<path d="M16.0567 22.6915L16.0606 20.3899C15.2173 20.5791 14.3938 20.8471 13.6057 21.186L13.6096 22.6954C13.5741 26.203 13.3732 29.08 12.4944 31.7048C11.7694 33.8723 10.5951 35.7049 8.9519 37.2695C8.41205 36.0163 8.10469 34.6448 8.10469 33.2063C8.10469 30.0534 9.53904 27.2198 11.8127 25.269L11.864 22.1003C8.04164 24.4335 5.5 28.5362 5.5 33.2024V33.2063C5.5 37.4114 7.55301 41.1554 10.7448 43.5674C13.8776 39.8155 15.9739 34.8143 16.0567 22.6915Z" fill="#3B175C"/>
<path d="M20.4266 18.0512C19.9813 18.0158 19.5795 18 19.2011 18C18.8228 18 18.4208 18.0158 17.9717 18.0512V20.7745C17.9717 32.7081 17.5106 37.8945 15.7256 45.9501C17.9874 46.5216 20.3912 46.5216 22.657 45.954C20.8837 37.9576 20.4266 32.7711 20.4266 20.7745V18.0512Z" fill="#3B175C"/>
</svg>
