<svg width="160" height="65" viewBox="0 0 160 65" fill="none" xmlns="http://www.w3.org/2000/svg">
<g clip-path="url(#clip0_619_2805)">
<mask id="mask0_619_2805" style="mask-type:luminance" maskUnits="userSpaceOnUse" x="30" y="15" width="101" height="36">
<path d="M130.024 15.0112H30.5V50.5555H130.024V15.0112Z" fill="white"/>
</mask>
<g mask="url(#mask0_619_2805)">
<path fill-rule="evenodd" clip-rule="evenodd" d="M37.2751 15.0112L35.5803 19.6612H59.0669L60.7617 15.0112H37.2751ZM34.7323 21.9851L33.0375 26.634H56.5241L58.219 21.9851H34.7323ZM32.1948 28.959L30.5 33.6079H53.9866L55.6804 28.959H32.1948Z" fill="#00AAFF"/>
<path fill-rule="evenodd" clip-rule="evenodd" d="M80.431 35.3798V35.4779C81.5042 35.8725 82.5295 36.5625 83.0668 37.0056C84.7264 38.3857 85.4592 40.2088 85.4592 42.5743C85.4592 46.4685 83.4085 49.2771 80.04 50.1645C79.0147 50.4599 77.9415 50.5591 75.9389 50.5591H65.7373V22.0744H74.7684C76.6237 22.0744 77.8923 22.1725 79.0147 22.4679C82.2861 23.3552 84.4338 25.6226 84.4338 29.2193C84.4338 31.1416 83.7503 32.7685 82.6279 33.8521C82.1399 34.3448 81.4563 34.9367 80.431 35.3798ZM71.3999 38.3857V45.8766H75.3056C76.476 45.8766 77.5505 45.7785 78.3325 45.0389C79.1131 44.2993 79.4549 43.3635 79.4549 42.1312C79.4549 41.1953 79.2102 40.308 78.7221 39.6676C77.8923 38.6326 76.867 38.3857 75.1102 38.3857H71.3999ZM71.3508 33.4575H74.5238C75.5 33.4575 75.9881 33.4575 76.476 33.3098C77.7953 32.9152 78.6251 31.7335 78.6251 30.1066C78.6251 28.1853 77.746 27.3465 76.476 26.953C75.9389 26.8053 75.4028 26.7557 74.3284 26.7557H71.3508V33.4575ZM93.9529 50.5591V26.8538H85.8009V22.0744H108.452L106.842 26.8538H99.6158V50.5591H93.9529ZM110.209 50.5591V22.0744H128.565L126.954 26.8538H115.824V33.1621H120.364C124.025 33.1621 125.929 34.0494 127.247 35.1825C128.272 36.0698 130.029 38.0407 130.029 41.935C130.029 45.7785 128.223 47.8971 126.71 48.9817C124.953 50.213 123.098 50.5591 119.338 50.5591H110.209ZM115.824 45.7785H120.071C121.682 45.7785 122.658 45.3839 123.341 44.4966C123.683 44.0535 124.171 43.2643 124.171 41.7862C124.171 40.308 123.683 39.273 122.707 38.5334C122.122 38.0903 121.34 37.8444 120.022 37.8444H115.824V45.7785Z" fill="#0A2896"/>
</g>
</g>
<defs>
<clipPath id="clip0_619_2805">
<rect width="99.7975" height="36" fill="white" transform="translate(30.5 15)"/>
</clipPath>
</defs>
</svg>
