<svg width="58" height="10" viewBox="0 0 58 10" fill="none" xmlns="http://www.w3.org/2000/svg">
<path d="M55.625 9.55859H54.6641V2H55.625V9.55859Z" fill="white"/>
<path d="M50.1055 9.61719C49.6992 9.61719 49.3281 9.55078 48.9922 9.41797C48.6562 9.28125 48.3652 9.09375 48.1191 8.85547C47.877 8.61328 47.6875 8.32812 47.5508 8C47.4141 7.67188 47.3457 7.31055 47.3457 6.91602V2H48.3066V6.91602C48.3066 7.49023 48.4707 7.94531 48.7988 8.28125C49.127 8.61328 49.5625 8.7793 50.1055 8.7793C50.6484 8.7793 51.084 8.61328 51.4121 8.28125C51.7441 7.94922 51.9102 7.49414 51.9102 6.91602V2H52.8652V6.91602C52.8652 7.30664 52.7969 7.66797 52.6602 8C52.5273 8.32812 52.3379 8.61328 52.0918 8.85547C51.8496 9.09375 51.5586 9.28125 51.2188 9.41797C50.8828 9.55078 50.5117 9.61719 50.1055 9.61719Z" fill="white"/>
<path d="M41.1113 4.09766C41.4004 4.09766 41.6699 4.15625 41.9199 4.27344C42.1738 4.39062 42.3965 4.55078 42.5879 4.75391C42.7793 4.95703 42.9297 5.20312 43.0391 5.49219C43.1523 5.77734 43.209 6.09375 43.209 6.44141V9.55859H42.3125V6.44141C42.3125 6.21875 42.2754 6.01562 42.2012 5.83203C42.1309 5.64453 42.0352 5.48438 41.9141 5.35156C41.793 5.21875 41.6523 5.11719 41.4922 5.04688C41.3359 4.97656 41.168 4.94141 40.9883 4.94141C40.5625 4.94141 40.2168 5.07812 39.9512 5.35156C39.6855 5.62109 39.5527 5.98438 39.5527 6.44141V9.55859H38.6504V4.15625H39.3125L39.5527 4.75977C39.666 4.63867 39.7969 4.53125 39.9453 4.4375C40.082 4.34766 40.2461 4.26953 40.4375 4.20312C40.6289 4.13281 40.8535 4.09766 41.1113 4.09766Z" fill="white"/>
<path d="M33.3066 6.85742C33.3066 7.14648 33.3496 7.41016 33.4355 7.64844C33.5254 7.88281 33.6465 8.08398 33.7988 8.25195C33.9512 8.41992 34.125 8.55078 34.3203 8.64453C34.5195 8.73438 34.7227 8.7793 34.9297 8.7793C35.1367 8.7793 35.3379 8.73438 35.5332 8.64453C35.7285 8.55078 35.9004 8.41992 36.0488 8.25195C36.1973 8.08398 36.3164 7.88281 36.4062 7.64844C36.5 7.41016 36.5469 7.14648 36.5469 6.85742C36.5469 6.56836 36.5 6.30664 36.4062 6.07227C36.3164 5.83789 36.1973 5.63672 36.0488 5.46875C35.9004 5.30078 35.7285 5.17188 35.5332 5.08203C35.3379 4.98828 35.1367 4.94141 34.9297 4.94141C34.7227 4.94141 34.5195 4.98828 34.3203 5.08203C34.125 5.17188 33.9512 5.30078 33.7988 5.46875C33.6465 5.63672 33.5254 5.83789 33.4355 6.07227C33.3496 6.30664 33.3066 6.56836 33.3066 6.85742ZM37.4492 6.85742C37.4492 7.26367 37.3828 7.63672 37.25 7.97656C37.1172 8.3125 36.9375 8.60352 36.7109 8.84961C36.4844 9.0918 36.2168 9.28125 35.9082 9.41797C35.5996 9.55078 35.2734 9.61719 34.9297 9.61719C34.5859 9.61719 34.2598 9.55078 33.9512 9.41797C33.6426 9.28125 33.373 9.0918 33.1426 8.84961C32.916 8.60352 32.7363 8.3125 32.6035 7.97656C32.4746 7.64062 32.4102 7.26758 32.4102 6.85742C32.4102 6.45117 32.4746 6.08008 32.6035 5.74414C32.7363 5.4082 32.916 5.11914 33.1426 4.87695C33.373 4.63086 33.6426 4.43945 33.9512 4.30273C34.2598 4.16602 34.5859 4.09766 34.9297 4.09766C35.2734 4.09766 35.5996 4.16602 35.9082 4.30273C36.2168 4.43945 36.4844 4.63086 36.7109 4.87695C36.9375 5.11914 37.1172 5.4082 37.25 5.74414C37.3828 6.08008 37.4492 6.45117 37.4492 6.85742Z" fill="white"/>
<path d="M31.209 9.55859H30.3066V4.15625H31.209V9.55859ZM30.1895 2.63281C30.1895 2.46484 30.2422 2.32812 30.3477 2.22266C30.457 2.11328 30.5918 2.05859 30.752 2.05859C30.9199 2.05859 31.0566 2.11328 31.1621 2.22266C31.2715 2.32812 31.3262 2.46484 31.3262 2.63281C31.3262 2.79297 31.2715 2.92773 31.1621 3.03711C31.0566 3.14648 30.9199 3.20117 30.752 3.20117C30.5918 3.20117 30.457 3.14648 30.3477 3.03711C30.2422 2.92773 30.1895 2.79297 30.1895 2.63281Z" fill="white"/>
<path d="M29.1113 8C29.1113 8.22266 29.0664 8.43164 28.9766 8.62695C28.8906 8.82227 28.7676 8.99414 28.6074 9.14258C28.4473 9.29102 28.2539 9.4082 28.0273 9.49414C27.8008 9.57617 27.543 9.61719 27.2539 9.61719C26.6523 9.61719 26.1797 9.45703 25.8359 9.13672C25.4922 8.81641 25.3047 8.41797 25.2734 7.94141H26.1758C26.207 8.17969 26.3105 8.37891 26.4863 8.53906C26.6621 8.69922 26.918 8.7793 27.2539 8.7793C27.5586 8.7793 27.7949 8.70117 27.9629 8.54492C28.1309 8.38867 28.2148 8.20703 28.2148 8C28.2148 7.80078 28.1445 7.65039 28.0039 7.54883C27.8633 7.44727 27.6895 7.36719 27.4824 7.30859C27.2754 7.25 27.0488 7.19531 26.8027 7.14453C26.5605 7.08984 26.334 7.01172 26.123 6.91016C25.916 6.80469 25.7422 6.65625 25.6016 6.46484C25.4609 6.26953 25.3906 6 25.3906 5.65625C25.3906 5.44922 25.4336 5.25195 25.5195 5.06445C25.6094 4.87695 25.7324 4.71094 25.8887 4.56641C26.0449 4.42188 26.2324 4.30859 26.4512 4.22656C26.6738 4.14062 26.9219 4.09766 27.1953 4.09766C27.7695 4.09766 28.2148 4.24805 28.5312 4.54883C28.8477 4.84961 29.0215 5.24023 29.0527 5.7207H28.1504C28.1191 5.48242 28.0273 5.29297 27.875 5.15234C27.7227 5.01172 27.4961 4.94141 27.1953 4.94141C26.9219 4.94141 26.7031 5.01562 26.5391 5.16406C26.375 5.30859 26.293 5.47266 26.293 5.65625C26.293 5.85547 26.3633 6.00586 26.5039 6.10742C26.6445 6.20898 26.8184 6.29102 27.0254 6.35352C27.2324 6.41211 27.457 6.4668 27.6992 6.51758C27.9453 6.56836 28.1719 6.64648 28.3789 6.75195C28.5898 6.85352 28.7637 7.00391 28.9004 7.20312C29.041 7.39844 29.1113 7.66406 29.1113 8Z" fill="white"/>
<path d="M24.0137 9.55859H23.1113V4.15625H24.0137V9.55859ZM22.9941 2.63281C22.9941 2.46484 23.0469 2.32812 23.1523 2.22266C23.2617 2.11328 23.3965 2.05859 23.5566 2.05859C23.7246 2.05859 23.8613 2.11328 23.9668 2.22266C24.0762 2.32812 24.1309 2.46484 24.1309 2.63281C24.1309 2.79297 24.0762 2.92773 23.9668 3.03711C23.8613 3.14648 23.7246 3.20117 23.5566 3.20117C23.3965 3.20117 23.2617 3.14648 23.1523 3.03711C23.0469 2.92773 22.9941 2.79297 22.9941 2.63281Z" fill="white"/>
<path d="M19.6367 4.94141C19.4297 4.94141 19.2266 4.98828 19.0273 5.08203C18.832 5.17188 18.6582 5.30078 18.5059 5.46875C18.3535 5.63672 18.2324 5.83789 18.1426 6.07227C18.0566 6.30664 18.0137 6.56836 18.0137 6.85742C18.0137 7.14648 18.0566 7.41016 18.1426 7.64844C18.2324 7.88281 18.3535 8.08398 18.5059 8.25195C18.6582 8.41992 18.832 8.55078 19.0273 8.64453C19.2266 8.73438 19.4297 8.7793 19.6367 8.7793C19.8125 8.7793 19.9785 8.74805 20.1348 8.68555C20.291 8.61914 20.4297 8.53516 20.5508 8.43359C20.6758 8.32812 20.7812 8.20703 20.8672 8.07031C20.957 7.93359 21.0273 7.78906 21.0781 7.63672H21.9746C21.9121 7.91016 21.8125 8.16797 21.6758 8.41016C21.5391 8.64844 21.3691 8.85742 21.166 9.03711C20.9629 9.2168 20.7305 9.35938 20.4688 9.46484C20.2109 9.56641 19.9336 9.61719 19.6367 9.61719C19.293 9.61719 18.9668 9.55078 18.6582 9.41797C18.3496 9.28125 18.0801 9.0918 17.8496 8.84961C17.623 8.60352 17.4434 8.3125 17.3105 7.97656C17.1816 7.64062 17.1172 7.26758 17.1172 6.85742C17.1172 6.45117 17.1816 6.08008 17.3105 5.74414C17.4434 5.4082 17.623 5.11914 17.8496 4.87695C18.0801 4.63086 18.3496 4.43945 18.6582 4.30273C18.9668 4.16602 19.293 4.09766 19.6367 4.09766C19.9336 4.09766 20.2109 4.15039 20.4688 4.25586C20.7305 4.35742 20.9629 4.5 21.166 4.68359C21.3691 4.86328 21.5391 5.07227 21.6758 5.31055C21.8125 5.54883 21.9121 5.80469 21.9746 6.07812H21.0781C21.0312 5.92578 20.9629 5.7832 20.873 5.65039C20.7832 5.51367 20.6758 5.39258 20.5508 5.28711C20.4297 5.18164 20.291 5.09766 20.1348 5.03516C19.9785 4.97266 19.8125 4.94141 19.6367 4.94141Z" fill="white"/>
<path d="M16.1621 8.11719C16.0723 8.30859 15.959 8.49805 15.8223 8.68555C15.6855 8.86914 15.5254 9.0293 15.3418 9.16602C15.1582 9.29883 14.9492 9.4082 14.7148 9.49414C14.4844 9.57617 14.2266 9.61719 13.9414 9.61719C13.5977 9.61719 13.2715 9.55078 12.9629 9.41797C12.6543 9.28125 12.3848 9.0918 12.1543 8.84961C11.9277 8.60352 11.748 8.3125 11.6152 7.97656C11.4863 7.64062 11.4219 7.26758 11.4219 6.85742C11.4219 6.45117 11.4863 6.08008 11.6152 5.74414C11.748 5.4082 11.9258 5.11914 12.1484 4.87695C12.375 4.63086 12.6387 4.43945 12.9395 4.30273C13.2402 4.16602 13.5547 4.09766 13.8828 4.09766C14.2109 4.09766 14.5195 4.16211 14.8086 4.29102C15.1016 4.41992 15.3555 4.60352 15.5703 4.8418C15.7891 5.07617 15.9609 5.35938 16.0859 5.69141C16.2148 6.02344 16.2793 6.39258 16.2793 6.79883C16.2793 6.87695 16.2754 6.94531 16.2676 7.00391C16.2598 7.05859 16.252 7.10547 16.2441 7.14453C16.2363 7.19141 16.2285 7.23633 16.2207 7.2793H12.3828C12.3984 7.4707 12.4512 7.6582 12.541 7.8418C12.6348 8.02539 12.75 8.18555 12.8867 8.32227C13.0273 8.45898 13.1895 8.57031 13.373 8.65625C13.5605 8.73828 13.75 8.7793 13.9414 8.7793C14.1094 8.7793 14.2578 8.75586 14.3867 8.70898C14.5195 8.6582 14.6406 8.60156 14.75 8.53906C14.8594 8.47656 14.9492 8.4082 15.0195 8.33398C15.0938 8.25586 15.1543 8.18359 15.2012 8.11719H16.1621ZM13.8828 4.94141C13.6992 4.94141 13.5234 4.98047 13.3555 5.05859C13.1914 5.13672 13.041 5.24414 12.9043 5.38086C12.7715 5.51758 12.6582 5.68164 12.5645 5.87305C12.4746 6.06445 12.4141 6.27344 12.3828 6.5H15.3184C15.2559 6.01953 15.0898 5.64062 14.8203 5.36328C14.5547 5.08203 14.2422 4.94141 13.8828 4.94141Z" fill="white"/>
<path d="M10.8184 5H10.5781C10.1523 5 9.80664 5.13672 9.54102 5.41016C9.27539 5.67969 9.14258 6.04297 9.14258 6.5V9.55859H8.24023V4.15625H8.90234L9.14258 4.75977C9.25586 4.63867 9.38672 4.53125 9.53516 4.4375C9.67188 4.34766 9.83594 4.26953 10.0273 4.20312C10.2188 4.13281 10.4434 4.09766 10.7012 4.09766H10.8184V5Z" fill="white"/>
<path d="M4.57812 2C4.90625 2 5.2168 2.0625 5.50977 2.1875C5.80273 2.30859 6.05664 2.47852 6.27148 2.69727C6.48633 2.91211 6.6582 3.16211 6.78711 3.44727C6.91602 3.72852 6.98047 4.02539 6.98047 4.33789C6.98047 4.65039 6.91602 4.94922 6.78711 5.23438C6.6582 5.51562 6.48633 5.76562 6.27148 5.98438C6.05664 6.19922 5.80273 6.36914 5.50977 6.49414C5.2168 6.61523 4.90625 6.67578 4.57812 6.67578H2.96094V9.55859H2V2H4.57812ZM4.57812 5.83789C4.76953 5.83789 4.95312 5.80078 5.12891 5.72656C5.30469 5.64844 5.45898 5.54297 5.5918 5.41016C5.72461 5.27344 5.82812 5.11328 5.90234 4.92969C5.98047 4.74219 6.01953 4.54492 6.01953 4.33789C6.01953 4.13086 5.98047 3.93555 5.90234 3.75195C5.82812 3.56836 5.72461 3.4082 5.5918 3.27148C5.45898 3.13477 5.30469 3.0293 5.12891 2.95508C4.95312 2.87695 4.76953 2.83789 4.57812 2.83789H2.96094V5.83789H4.57812Z" fill="white"/>
</svg>
